<svg xmlns="http://www.w3.org/2000/svg" width="4942.129" height="2837.1"><defs><clipPath id="a"><path d="M3626.99-2560.58h-42.156l-505.68 231.086-27.8 54.5h575.881c4.025-95.186 13.445-190.389-.242-285.588" transform="translate(-3051.352 2560.58)"/></clipPath></defs><path d="M2471.067 2837.103C1106.328 2837.103 0 2726.073 0 2589.103c0-74.145 324.315-140.7 838.288-186.15 2.323 40.771 5.993 80.28 11.555 80.28h2.339l129.6 109.6s57.806 1.545 114.992 1.545c28.585 0 57.01-.382 77.984-1.545 53.878-3.006 111.031-81.256 126.306-103.66a35.234 35.234 0 013.954-.3l-3.712-.043c2.411-3.544 3.712-5.595 3.712-5.595h7.937c.17.666.353 1.318.522 1.967l.724 2.622a16.97 16.97 0 0016.338 12.372h2782.394a16.95 16.95 0 0016.965-16.254c0-.07 0-.3.032-.707h15.04l87.007 94.521.979-.255 17.583 18.817h189.446c85.571 0 121.229-79.882 130.462-105.361l8.09-2.084-7.34-.1c1.207-3.514 1.761-5.539 1.761-5.539a14.76 14.76 0 0014.486-11.947c.587-2.948 1.142-6.293 1.7-9.989 224.125 37.324 352.987 81.057 352.987 127.807-.002 136.968-1106.336 247.998-2471.064 247.998m-1605.7-353.712l-11.731-.153h11.575l.156.153" fill="#0d79d6"/><path d="M4595.5 1337.085c-35.232-214.678-85.92-459.914-93.328-495.6a14.854 14.854 0 00-4.163-7.619c-137.252-132.91-361.039-81.146-361.039-81.146l-5.813.795c-22.742-170.68-77.933-353.633-195.442-506.035-278.975-361.928-2218.742-273.312-2516.6 96.145-74 91.766-109.811 238.6-124.847 392.9a14.679 14.679 0 01-17.046 13.162c-52.493-8.783-225.943-27.518-341.222 84.18a14.738 14.738 0 00-4.169 7.619q-27.864 134.024-53.027 268.641c-13.107 69.723-27.735 139.727-37.457 210.014-23.952 173.2-12.725 356.783-12.881 531.555-.135 154.49.414 309.154 6.324 463.563.395 10.33 3.945 167.982 15.059 167.982h3723.123a14.762 14.762 0 0014.477-11.947c26.354-133.943 19.284-1066.184 8.051-1134.2" fill="#e28e42"/><path d="M4144.966 2483.226l428 .015s-31.18 113.084-132.969 113.084h-189.472l-105.559-113.1M852.158 2470.967l452.858 12.271s-67.354 106.1-130.26 109.6c-62.9 3.485-192.977 0-192.977 0l-129.622-121.869" fill="#4d4d4d"/><path d="M4095.49 1289.341q-78.732-3.211-155.395-5.922a19.185 19.185 0 00-1.074-1.645c181.207-143.844 142.4-590.41 118.406-770.1q39.012 111.5 56.621 242c-25.125 183.719-20.352 462.209-18.559 535.672M1330.11 1351.935c-1.048-16.8.438-46.646 2.281-83.2 3.3-65.381 7.88-156.4 3.644-264.18 30.678 129.52 87.021 235.205 179.218 235.205 9.282 0 20.123.121 32.366.324.285 2.6.567 5.244.866 7.822 2.55 27.164 5.5 53.84 8.9 79.115-119.4 11.154-195.4 20.662-227.273 24.908m550.494-50.1l64.344-46.746c.365.018.771.039 1.138.061-30.271 22.793-53.393 38.844-64.83 46.625-.225.02-.407.02-.651.061m-565.7-519.113q-2.382-15.267-5.046-30.76 2.3-25.811 5.26-50.3c-.072 24.074-.144 51.381-.214 81.064M1318.199 1905.004c.032-4.525.083-9.07.116-13.646.6-59.213 1.613-117.777 2.845-173.1 8.472 48.328 28.825 102.648 77.221 112.719 90.483 18.873 938.771 28.492 938.771 28.492l-21.252.949-257.738 1.713s12.215 3.18 33.467 8.3l-773.43 34.566M4113.695 1890.673l-505.926-23.607s384.5-21.016 459.912-51.17c23.033-9.211 38.105-31.717 47.885-58.555-.387 40.672-1.02 85.025-1.871 133.332" fill="#af6351"/><path d="M981.779 2592.836l-129.6-109.6h1.455l11.731.156 116.413 109.442m319.284-103.661c.084-.112.169-.227.239-.34l3.713.042a35.366 35.366 0 00-3.952.3" fill="#216abd"/><path d="M853.639 2483.24h-1.456l-.022-.015 1.479.015" fill="#bf528d"/><path d="M981.781 2592.836l-116.412-109.442 435.938 5.441a4.533 4.533 0 01-.241.341c-37.851 4.591-245.215 60.567-319.284 103.66" fill="#3e3e3e"/><path d="M833.502 2277.772s-.143-12.168 0-33.418v33.418m0-33.418l.055-813.062s99.715-94.7 283.852-94.975q7.018 0 14.216.162c46.168 1.135 97.382 8.246 153.421 24.078 25.159 7.111-296.982 65.15-376.783 278.143-66.312 176.992-74.041 501.135-74.76 605.652" fill="#af6351"/><path d="M932.062 840.492l.685-3.437s.631-.582 1.854-1.648a15.154 15.154 0 00-2.539 5.086m110.409-72.82c39.183-17.553 86.3-31.527 136.919-31.527a261.388 261.388 0 0171.974 9.975 537.906 537.906 0 00-59.546-3.316c-43.956 0-97.257 5.51-149.347 24.869" fill="#198ed5"/><path d="M886.188 1071.129l45.874-230.617a14.993 14.993 0 012.538-5.1c8.951-7.783 49.69-41.693 107.87-67.736 52.09-19.363 105.387-24.881 149.347-24.881a538.976 538.976 0 0159.545 3.33 256.449 256.449 0 0124.531 8.367c.042.361.083.725.155 1.1 5.457 31.3 9.906 62 13.534 91.918-68.147 10.932-324.708 62.137-403.395 223.613M1493.535 2466.274h-149.816c-6.519-28.326-11.833-69.267-15.929-122.152 23.467 42.257 70.771 94.165 165.743 122.152M4146.101 1436.714c-4.5-97.754-11.863-123.205-16.3-133.607-.031-1.316-.086-3.016-.145-5.07 29.809-15.531 92.609-45.687 131.152-45.687 0 0-82.457 91.316-114.707 184.365M2589.935 1943.77c-176.057-.014-411.977-52.562-498.3-73.336l224.26-10.018 1194.438-7.965c-213.436 4.125-633.775 57.35-833.863 85.934-26.2 3.738-55.428 5.385-86.535 5.385" fill="#af6351"/><path d="M2091.64 1870.43c-21.268-5.117-33.471-8.3-33.471-8.3l257.732-1.717-224.261 10.017" fill="#973986"/><path d="M3510.363 1852.446q13.061-.258 25.053-.256c2.816 0 5.557 0 8.3.029l-33.35.227" fill="#bf528d"/><path d="M4231.96 2577.758l-86.984-94.52 87.984 94.268-1 .252m338.457-86.8c.273-.776.547-1.5.762-2.182l7.355.1-8.117 2.081" fill="#216abd"/><path d="M4144.966 2483.239l-.023-.013.023.013" fill="#bf528d"/><path d="M4232.957 2577.506l-87.977-94.267-.031-.012 426.238 5.553c-.246.68-.488 1.4-.766 2.182l-337.465 86.544" fill="#3e3e3e"/><path d="M1366.52 474.504q27.27-72.4 65.8-120.229c77.146-95.7 283.162-180.875 580.1-239.893 116.968-23.236 245.794-41.891 379.81-55.342a404.287 404.287 0 00-37.172 24.627c-1.527 1.125-3.028 2.252-4.448 3.406-219.832 31.328-436.678 75.041-586.325 128.4-233.776 83.377-345.91 189.293-397.765 259.029m2626.463-108.33c-62.258-65.123-189.135-162.17-428.972-228.635-215.478-59.713-555.659-84.424-853.549-90.908q-49.126 4.02-100.5 9.111-13.187-6.917-25.971-12.221c102.405-6.324 205.91-9.6 307.7-9.6q25.97 0 51.752.271c509.267 5.545 875.175 89.162 978.843 223.65a838.677 838.677 0 0170.7 108.326" fill="#eebb8e"/><path d="M4497.989 833.841c-77.145-74.687-181.613-91.041-258.332-91.041-5.2 0-10.281.059-15.215.209a350.71 350.71 0 0153.848-4.244c144.383 0 219.7 95.076 219.7 95.076" fill="#6de0ff"/><path d="M4595.51 1337.085s-25.344-35.6-69.566-62.99l-26.652-24.146s-1.465-355.756-49.59-403.883c-41.719-41.719-249.1-69.561-303.535-76.242.3-2.287.578-4.51.883-6.8a420.161 420.161 0 0177.4-20.008 494.567 494.567 0 0115.223-.213c76.7 0 181.184 16.346 258.34 91.035l97.5 503.246M4587.46 2471.287l-59.836-16.8s37.234-913.832 7.1-1034.484c-30.16-120.65-170.445-167.656-170.445-167.656a190.453 190.453 0 0158.125-9.3c40.867 0 75.906 13.932 103.539 31.049l69.566 62.99-8.055 1134.2" fill="#eebb8e"/><path d="M4595.509 1337.085l-69.562-62.99c44.219 27.393 69.563 62.99 69.563 62.99" fill="#fdcdda"/><path d="M833.559 1431.291l9.616-60.891c18.914-80.252 200.76-107.475 335.429-107.475 16.563 0 32.436.416 47.188 1.2 55.863-35.584 72.783-124.24 76.155-201.107l1.813 45.051c-.367 62.354-3.088 116.2-5.241 158.951-2.112 41.9-3.586 71.078-2.069 89.688-62.111-13.16-116.827-19.187-164.825-20.219q-6.754-.161-13.389-.162h-1.745c-207.937 0-282.932 94.969-282.932 94.969" fill="#eebb8e"/><path d="M1131.627 1336.479q-7.207-.17-14.215-.162h.823q6.631 0 13.392.162" fill="#d997bb"/><path d="M1301.949 1063.009l-5.3-131.912s1.94 14.031 3.613 36.459q1.468 25.184 2.269 49.314c.238 14.465.127 30.047-.581 46.139" fill="#fbacc1"/><path d="M2085.036 1671.28c-211.559-.01-405.914-67.227-488.417-114.7-103.266-59.432-28.061-160.469-27.9-160.674 7.609 37.678 16.821 67.869 27.9 85.133a153.69 153.69 0 0028.994 32.676c50.306 50.238 108.5 68.049 153.031 73.533a664.087 664.087 0 0071.45 16.408q-4.124-7.9-7.554-15.869c1.545-.184 2.876-.371 3.97-.525a59.543 59.543 0 003.584 5.09c21.965 16.068 82.815 21.055 149.788 21.055 4.038 0 8.106-.025 12.173-.055a927.714 927.714 0 0094 5.258c46.21 0 90.595-4.592 125.179-17.275 1.857 3.854 3.02 5.852 3.02 5.852s12.429 4.492 67.978 4.492c37.677 0 95.212-2.066 182.2-9.012a597.175 597.175 0 0063.518-8.816c8.586 8.857 18.463 15.2 29.811 18.426a328.269 328.269 0 0038.914 8.5 221.441 221.441 0 0024.836 3.063c12.715 1.146 25.557 1.686 38.4 1.686 67.051 0 134.7-14.555 192.2-32.268a16.622 16.622 0 006.086 1.133h586.275a17.124 17.124 0 007.662-1.812l355.879-180.143c-127.187 87.52-334.371 226.266-369.211 226.266-50.881 0-446.762-14.156-519.59-14.156-59.338 0-218.945 39.439-328.316 39.439-24.857 0-47.113-2.041-65.012-7.027-50.57-14.131-81.725-22.363-125.151-22.363-39.611 0-89.383 6.859-173.274 22.363-54.235 10.02-108.866 14.324-162.417 14.324m-252.967-262.248a395.919 395.919 0 0119.088-57.482l.92-.154a428.242 428.242 0 00-20.008 57.637m1363.243-38.658a234.71 234.71 0 00-35.664-9.826 135.861 135.861 0 0136.154 9.6l-.49.23m4.721-2.141l-4.721-19.443 48.457-.414-43.736 19.857M4115.308 1544.012c-34.988-106.412-97.613-188.943-128.055-224.924 37.5 1.389 75.246 2.863 113.512 4.438 5.809 22.375 12.313 79.582 14.543 220.486" fill="#af6351"/><path d="M1309.862 751.96c37.61 217.67 28.171 404.811 22.532 516.773-1.843 36.561-3.331 66.391-2.281 83.2 136.041-18.139 1075.469-131.77 2765.345-62.576-1.774-73.467-6.548-351.945 18.6-535.67-26.754-198.662-91.282-365.486-191.8-495.846-103.632-134.465-469.56-218.082-978.807-223.635-317.722-3.527-657.035 25.754-931.03 80.207-296.937 58.975-502.953 144.178-580.1 239.871-64.9 80.457-106.1 214.258-122.453 397.68m5.556 636.078a16.957 16.957 0 01-16.736-14.326s-.6-3.715-1.572-10.8c-2.522-18.041-.964-49.02 1.4-95.881 5.585-110.928 14.938-296.6-22.461-511.436a17.207 17.207 0 01-.183-4.412c16.821-191.363 60.58-332.1 130.02-418.189C1587.322 107.945 2333.604-6.202 2943.81.262c240.539 2.637 457.766 23.424 628.143 60.143 191.72 41.295 318.637 100.771 377.2 176.732 104.326 135.326 171.184 307.9 198.66 512.912a16.983 16.983 0 01.193 5.8c-29.03 209.039-18.205 547.254-18.095 550.652a17.128 17.128 0 01-5 12.611 17.49 17.49 0 01-12.685 4.9c-1831.566-76.182-2784.859 62.438-2794.268 63.844a17.2 17.2 0 01-2.537.184M4122.367 1908.263c-.444 0-.859-.018-1.3-.047-941.935-70.768-2786.443-.678-2804.949.029a17.177 17.177 0 01-17.615-16.295 16.97 16.97 0 0116.3-17.6c18.55-.721 1864.952-70.869 2808.828.027a16.989 16.989 0 0115.652 18.2 16.992 16.992 0 01-16.9 15.688" fill="#232323"/><path d="M4112.948 2500.204H1330.537a16.965 16.965 0 01-16.337-12.375l-.724-2.623c-22.377-82.469-32.168-282.4-29.079-594.172 2.62-265.35 13.985-518.2 14.1-520.725a17.054 17.054 0 0117.715-16.186 16.959 16.959 0 0116.17 17.715c-.1 2.525-11.437 254.795-14.061 519.523-2.889 292.047 5.883 490.131 25.395 574.912h2752.94c2.641-65.979 12.456-322.02 17.019-575.1 8.231-455.709-6.509-556.959-16.018-576.771a16.971 16.971 0 017.953-22.646 16.913 16.913 0 0122.607 7.951c7.174 14.908 28.976 60.268 19.382 592.076-5.256 292.645-17.574 589.2-17.687 592.162a16.973 16.973 0 01-16.961 16.254" fill="#232323"/><path d="M4584.175 2500.201h-471.243a16.946 16.946 0 01-16.957-16.961 16.947 16.947 0 0116.957-16.965h458.3c8.375-44.777 16.652-209.26 17.324-556.5.555-288.82-4.715-539.105-9.809-569.91-34.777-211.8-85.223-456.416-93.07-494.289-129.191-124.412-342.723-76.818-344.867-76.3a16.974 16.974 0 01-20.363-12.727 16.926 16.926 0 0112.7-20.33c9.656-2.238 238.148-53.113 380.07 88.838a16.935 16.935 0 014.629 8.525c.551 2.668 56.672 270.91 94.391 500.764 5.98 36.252 10.758 305.186 10.238 575.5-.395 197.385-3.828 535.225-22.664 579.975a16.93 16.93 0 01-15.633 10.385M1321.099 2500.202H849.838a16.954 16.954 0 01-15.633-10.373c-28.015-66.4-24.952-814.879-17.617-1059.043 2.361-79.186 4.5-92.182 5.2-96.463 37.729-229.824 93.785-498.078 94.347-500.75a16.806 16.806 0 014.607-8.506c136.642-136.646 351.36-94.277 375.381-89.016a17.921 17.921 0 018.628 4.629 17.021 17.021 0 01.028 24.029 16.974 16.974 0 01-16.705 4.326c-27.55-5.875-217.753-41.164-339.771 76.51-7.868 37.9-58.269 282.516-93.033 494.3-.926 5.609-2.774 25.029-4.767 91.955-8.463 281.654-7.492 932.426 12.185 1034.473h458.405a16.962 16.962 0 0116.96 16.963 16.962 16.962 0 01-16.96 16.961" fill="#232323"/><path d="M4595.528 1354.044a16.906 16.906 0 01-12.586-5.582c-169.66-187.27-458.766-28.256-461.672-26.627a16.98 16.98 0 01-23.113-6.477 16.973 16.973 0 016.461-23.1c3.184-1.783 79.039-44.057 178.773-61.824 134.3-23.951 246.563 9.012 324.684 95.254a16.98 16.98 0 01-1.164 23.965 16.936 16.936 0 01-11.383 4.391M833.516 1448.27a16.9 16.9 0 01-11.985-4.945 16.963 16.963 0 01-.027-23.986c.271-.273.608-.578.9-.83 188.7-164.725 446.994-90.59 496.86-74.049 6.806 2.232 10.463 3.639 10.463 3.639a16.987 16.987 0 019.75 21.908 16.947 16.947 0 01-21.906 9.768c-.2-.07-3.308-1.236-8.962-3.117-46.807-15.523-288.98-85.17-463.791 67.33a17.04 17.04 0 01-11.3 4.283" fill="#232323"/><path d="M525.001 836.943a17.66 17.66 0 01-9.443 2.691 18.147 18.147 0 01-18.381-17.062 18.307 18.307 0 00-18.153-17.08 19.687 19.687 0 00-3.11.287 21.656 21.656 0 01-3.224.289c-15.044 0-24.092-18.275-13.517-30.326a18.123 18.123 0 004.524-11.99 18.273 18.273 0 00-7.69-14.924 17.8 17.8 0 01-7.691-14.721 18.144 18.144 0 0117.077-18.373 18.227 18.227 0 0017.079-18.148 18.993 18.993 0 00-.281-3.059 21.806 21.806 0 01-.283-3.285c0-15.029 18.265-24.084 30.313-13.51a18.152 18.152 0 0012.045 4.535 18.065 18.065 0 0014.814-7.637 17.872 17.872 0 0114.761-7.76 18.1 18.1 0 0118.327 17.083 18.273 18.273 0 0021.262 16.793 21.6 21.6 0 013.223-.268c15.044 0 24.149 18.252 13.517 30.3a18.165 18.165 0 00-4.523 11.988 18.308 18.308 0 007.691 14.924 17.8 17.8 0 017.692 14.7 18.165 18.165 0 01-17.082 18.395 18.276 18.276 0 00-17.08 18.193 18.8 18.8 0 00.281 3.08 21.616 21.616 0 01.284 3.266c0 14.984-18.211 24.039-30.313 13.467a17.992 17.992 0 00-11.99-4.518 18.209 18.209 0 00-14.872 7.68 18.187 18.187 0 01-5.26 4.988" fill="#fcee21"/><path d="M330.633 918.577c111.8 22.668 171.861 92.916 203.814 156.1-11.536 35.681-13.966 61.347-13.966 61.347h-18.72v-1.861c-34.1-118.777-167-212.645-171.128-215.586" fill="#8cc63f"/><path d="M534.445 1074.689c22.734-70.137 80.813-179.061 225.419-208.291 0 0-179.216 124.639-179.216 269.646h-60.17s2.429-25.674 13.967-61.355" fill="#8cc63f"/><path d="M795.151 1546.116v4.959a51.264 51.264 0 01-51.238 51.234h-437.6a51.226 51.226 0 01-51.237-51.234v-4.959a51.227 51.227 0 0151.237-51.25h437.6a51.265 51.265 0 0151.238 51.25" fill="#c69c6d"/><path d="M604.009 1253.312c26.014 44.166 70.126 176.625 51.972 241.549H384.924c-18.155-64.924 25.958-197.383 51.973-241.549 25.955-44.094-26.016-117.279-26.016-117.279h219.142s-51.97 73.179-26.014 117.279" fill="#ff6130"/><path d="M436.898 1253.291a112.723 112.723 0 006.556-19.094 52.218 52.218 0 01-6.556 19.094" fill="#198ed5"/><path d="M501.762 1494.857h-53.484s-28.866-1.818-63.167-2.223c1.667-18.979 14.72-155.8 51.785-239.326a52.379 52.379 0 006.556-19.1c14.088-57.791-27.832-98.18-27.832-98.18s76.038.652 93.945 91.137c17.908 90.5-88.524 186.969-7.8 267.691" fill="#df4f22"/><path d="M526.34 1059.58a306.512 306.512 0 00-35.068-49.549q17.422 15.4 36.086 34.285l-1.018 15.264m-64.4-7.727c-20.2-24.473-42.683-51.41-62.643-74.609 20.916 20.732 43.435 46.059 62.643 74.609m-86.816-120.932c-8.183-2.922-16.7-5.6-25.576-7.953a27.652 27.652 0 00-5.587-4.16c3.133.873 14.121 4.16 31.164 12.113" fill="#198ed5"/><path d="M521.956 1125.413c-.274-.361-27.142-33.729-60.021-73.562-19.208-28.531-41.727-53.861-62.64-74.6-21.468-24.951-40.025-45.58-49.75-54.262a318.058 318.058 0 0125.575 7.943c26.408 12.344 67.352 35.908 116.148 79.113a306.112 306.112 0 0135.069 49.541l-4.375 65.787a.233.233 0 00-.006.039M521.96 1125.415a.128.128 0 01.006-.035v.035" fill="#738a4f"/><path d="M343.96 918.823c-.612-.17-.923-.246-.923-.246a2.274 2.274 0 01.923.246M340.885 1614.245c-22.775 0-45.479-4.389-59.663-18.494a50.925 50.925 0 0025.093 6.543h109.883s-37.752 11.951-75.313 11.951m-65.279-109.18a17.447 17.447 0 013.408-2.35 50.48 50.48 0 00-3.408 2.35m109.318-10.223h-70.373c17.272-1.7 37.887-2.287 57.7-2.287 4.073 0 8.115.031 12.084.078.19.742.386 1.484.591 2.209" fill="#198ed5"/><path d="M416.193 1602.31H306.311a50.814 50.814 0 01-25.093-6.555.364.364 0 01-.1-.076c-37.507-37.514-26.054-70.082-5.882-90.26.116-.109.237-.219.362-.34a48.662 48.662 0 013.408-2.348c7.091-3.834 19.955-6.32 35.537-7.865h133.732s-86.779 52.762-32.082 107.443" fill="#b4895a"/><path d="M384.925 1494.853a97.83 97.83 0 01-.591-2.227c.26 0 .518.016.777.016-.126 1.438-.187 2.211-.187 2.211" fill="#b2a1c4"/><path d="M448.277 1494.862h-63.356s.06-.76.187-2.213c34.3.4 63.168 2.213 63.168 2.213" fill="#8d70ac"/><path d="M536.784 832.213c-2.1 0-4.276-.082-6.523-.266a18.185 18.185 0 0114.874-7.689 18.029 18.029 0 0111.988 4.518l.425.365a68.781 68.781 0 01-20.763 3.072m-39.249-6.957c-13.855-4.008-28.861-10.152-37.928-19.2-20.36-20.363 4.091-42.311 4.091-42.311a18.169 18.169 0 01-4.524 12c-10.576 12.045-1.528 30.311 13.517 30.311a21.4 21.4 0 003.223-.285 17.988 17.988 0 013.11-.285 18.3 18.3 0 0118.153 17.068 19.98 19.98 0 00.358 2.705M463.7 763.745s-27.364-24.8-12.25-40.053a18.963 18.963 0 00-3.132 10.414 17.765 17.765 0 007.691 14.707 18.313 18.313 0 017.691 14.932m-6.646-45.465a248.523 248.523 0 0125.421-20.707 18.209 18.209 0 01-17.079 18.146 18.566 18.566 0 00-8.342 2.561" fill="#198ed5"/><path d="M530.268 831.947a218.943 218.943 0 01-32.726-6.691 20.136 20.136 0 01-.358-2.705 18.3 18.3 0 00-18.153-17.068 18.013 18.013 0 00-3.111.285 21.372 21.372 0 01-3.222.285c-15.044 0-24.093-18.266-13.517-30.311a18.167 18.167 0 004.524-12 18.315 18.315 0 00-7.691-14.932 17.765 17.765 0 01-7.691-14.705 18.964 18.964 0 013.132-10.416l.063-.061a210.621 210.621 0 015.542-5.35 18.545 18.545 0 018.342-2.562 18.209 18.209 0 0017.079-18.146s18.643 81.551 104.4 111.412c0 0-9.174 13.854-29.323 20.158l-.424-.365a18.028 18.028 0 00-11.988-4.518 18.182 18.182 0 00-14.874 7.689" fill="#c1a63a"/><path d="M660.242 1486.363h-2.307q1.018-5.461 1.572-11.391c.526 7.24.735 11.391.735 11.391m-18.884-139c-10.46-35.84-23.472-68.447-34.19-88.418 15.262 20.813 26.287 53.879 34.19 88.418m-34.236-88.508a184.058 184.058 0 00-3.116-5.551c-19.512-33.137 5.01-82.727 18.388-105.314-25.4 47.479-15.522 109.34-15.275 110.865" fill="#6de0ff"/><path d="M657.936 1486.363H633.98c0-55.6-50.957-197.865-74.461-221.367-23.506-23.52-4.715-93.43-4.715-93.43a78.64 78.64 0 01-13.67 1.178c-37.222 0-70.214-24.75-70.214-24.75h151.478c-13.381 22.588-37.9 72.178-18.391 105.314a194.554 194.554 0 013.117 5.551.129.129 0 000 .035c.014.039.028.039.041.055 10.717 19.971 23.729 52.578 34.189 88.418 11.607 50.752 16.479 104.666 18.148 127.605q-.558 5.936-1.571 11.391" fill="#fcb798"/><path d="M306.316 1511.813a34.322 34.322 0 00-34.273 34.285v4.977a34.316 34.316 0 0034.273 34.266h437.6a34.315 34.315 0 0034.271-34.266v-4.977a34.32 34.32 0 00-34.271-34.285zm437.6 107.467h-437.6a68.281 68.281 0 01-68.205-68.205v-4.977a68.284 68.284 0 0168.205-68.209h437.6a68.284 68.284 0 0168.205 68.209v4.977a68.281 68.281 0 01-68.205 68.205" fill="#232323"/><path d="M308.81 2597.636a25.451 25.451 0 01-25.451-25.451v-958.58a25.45 25.45 0 0125.451-25.439 25.448 25.448 0 0125.448 25.439v958.58a25.449 25.449 0 01-25.448 25.451M735.724 2597.636a25.451 25.451 0 01-25.45-25.451v-958.58a25.45 25.45 0 0125.45-25.439 25.448 25.448 0 0125.449 25.439v958.58a25.45 25.45 0 01-25.449 25.451M509.57 2479.088a25.453 25.453 0 01-25.451-25.455V1613.6a25.45 25.45 0 0125.451-25.439 25.448 25.448 0 0125.449 25.439v840.036a25.452 25.452 0 01-25.449 25.455M655.99 1511.834a17.045 17.045 0 01-4.575-.639 16.967 16.967 0 01-11.77-20.9c15.938-57.012-23.077-182.23-50.256-228.377-20.563-34.945-4.151-80.312 10.684-108.934H440.836c14.828 28.621 31.239 73.988 10.677 108.934-27.179 46.146-66.184 171.381-50.255 228.377a16.968 16.968 0 01-11.771 20.9 16.937 16.937 0 01-20.9-11.773c-20.453-73.172 28.364-211.705 53.688-254.709 16.564-28.146-13.423-82.176-25.235-98.885a16.974 16.974 0 01-1.216-17.6 16.984 16.984 0 0115.063-9.182h219.14a16.99 16.99 0 0115.077 9.182 16.989 16.989 0 01-1.245 17.613c-11.8 16.691-41.794 70.721-25.229 98.867 25.333 43 74.157 181.537 53.689 254.709a16.984 16.984 0 01-16.329 12.412" fill="#232323"/><path d="M580.647 1152.997a16.964 16.964 0 01-16.968-16.955c0-88.854 61.021-168.838 113.3-221.072-71.99 41.557-108.2 108.82-126.4 164.938-10.738 33.246-13.195 57.516-13.216 57.75a16.993 16.993 0 01-18.517 15.26 16.967 16.967 0 01-15.262-18.482c.1-1.129 2.745-27.943 14.716-64.975 22.232-68.566 82.728-188.275 238.2-219.693a16.981 16.981 0 0118.959 9.961 16.956 16.956 0 01-5.9 20.584c-1.725 1.2-171.95 121.4-171.95 255.73a16.961 16.961 0 01-16.963 16.955" fill="#232323"/><path d="M501.752 1151.142a17 17 0 01-16.3-12.3C453.575 1027.834 326.3 936.311 320.894 932.477l19.574-27.709-9.839 13.809 9.923-13.75c14.538 10.336 142.988 104.412 177.516 224.652a16.975 16.975 0 01-11.625 21 16.614 16.614 0 01-4.691.668" fill="#232323"/><path d="M534.645 1092.001a16.923 16.923 0 01-14.767-8.65c-.2-.342-.389-.686-.568-1.029-40.457-79.969-105.072-129.49-192.048-147.129a16.1 16.1 0 01-3.757-1.225 16.954 16.954 0 01-9.952-15.441 16.97 16.97 0 0116.968-16.973 17.232 17.232 0 014.3.553c120.773 24.8 183.276 102.914 214.5 164.369a14.074 14.074 0 01.749 1.451 16.992 16.992 0 01-8.083 22.393 16.851 16.851 0 01-7.34 1.682" fill="#232323"/><path d="M534.671 1070.307a16.974 16.974 0 01-16.2-11.951c-20.3-65.539-16.835-157.506-10.353-223.105 4.256-43.205 9.634-73.359 9.86-74.623a16.975 16.975 0 0119.692-13.713 16.982 16.982 0 0113.7 19.709c-.048.3-5.37 30.172-9.488 71.953-6.176 62.5-9.631 149.627 9 209.756a16.947 16.947 0 01-11.189 21.211 16.817 16.817 0 01-5.022.764" fill="#232323"/><path d="M479.023 788.497a35.362 35.362 0 0135.083 32.891c.056.887.545 1.277 1.453 1.277l.856-.533a35.221 35.221 0 0128.725-14.838 34.987 34.987 0 0123.249 8.789.976.976 0 001.273.164c.241-.121.809-.432.809-.928a5.18 5.18 0 00-.089-.721 35.638 35.638 0 01-.479-5.615 35.311 35.311 0 0132.966-35.16c.794-.041 1.2-.535 1.2-1.443 0-.289 0-.475-.574-.867a35.531 35.531 0 01-14.809-28.762 35.278 35.278 0 018.711-23.152c.382-.414.583-.641.277-1.322-.118-.246-.451-.867-1.018-.867a35.405 35.405 0 01-28.044-6.994 35.4 35.4 0 01-13.367-25.318l-.008-.082c-.021-.311-.076-1.178-1.391-1.178-.262 0-.491 0-.947.639a35.152 35.152 0 01-28.626 14.734 35.292 35.292 0 01-23.2-8.709 1.025 1.025 0 00-1.363-.246c-.31.145-.835.453-.835.99.015.229.062.516.1.824a33.2 33.2 0 01.463 5.49 35.246 35.246 0 01-32.957 35.1c-.8.043-1.206.537-1.206 1.443 0 .291 0 .479.582.889a35.5 35.5 0 0114.809 28.742 35.227 35.227 0 01-8.705 23.133 1.04 1.04 0 00-.263 1.361c.144.311.462.846.988.846a41.32 41.32 0 016.337-.577zm36.536 68.092a34.949 34.949 0 01-35.31-32.951 1.331 1.331 0 00-1.226-1.2 39.52 39.52 0 01-6.33.578 35.21 35.21 0 01-31.9-20.777 34.808 34.808 0 015.64-37.721 1.1 1.1 0 00.3-.785 1.389 1.389 0 00-.638-1.154 34.644 34.644 0 01-14.751-28.477 34.956 34.956 0 0132.97-35.3 1.282 1.282 0 001.19-1.236 40.3 40.3 0 01-.567-6.316 35.206 35.206 0 0120.772-31.9 34.781 34.781 0 0137.7 5.635 1.457 1.457 0 001.826-.187 34.8 34.8 0 0128.605-14.9 34.908 34.908 0 0135.248 32.914 1.317 1.317 0 00.511.949 1.234 1.234 0 001 .266 36.1 36.1 0 016.054-.535 35.235 35.235 0 0131.948 20.84 34.715 34.715 0 01-5.7 37.658 1.12 1.12 0 00-.284.766 1.4 1.4 0 00.629 1.174 34.584 34.584 0 0114.751 28.455 34.968 34.968 0 01-32.961 35.328 1.3 1.3 0 00-1.2 1.275 39.361 39.361 0 01.568 6.338 35.126 35.126 0 01-20.709 31.816 34.8 34.8 0 01-37.731-5.59 1.132 1.132 0 00-.824-.33 1.238 1.238 0 00-1.031.514 34.807 34.807 0 01-10.214 9.637 34.252 34.252 0 01-18.336 5.221M4418.897 2613.301h-121.144a142.434 142.434 0 01-96.738-37.737l-86.828-79.853a16.931 16.931 0 01-1-23.963 16.984 16.984 0 0123.973-1.007l86.828 79.853a108.626 108.626 0 0073.766 28.769h121.145a108.239 108.239 0 0077.059-31.927l70.566-70.556a16.987 16.987 0 0124 0 16.986 16.986 0 010 24l-70.559 70.557a142.031 142.031 0 01-101.07 41.861M1145.396 2613.299h-121.15a142.57 142.57 0 01-96.755-37.736l-86.817-79.854a16.956 16.956 0 01-1-23.963 16.987 16.987 0 0123.976-1.006l86.817 79.854a108.719 108.719 0 0073.782 28.768h121.15a108.244 108.244 0 0077.076-31.928l70.558-70.557a16.977 16.977 0 0123.991 0 17 17 0 010 24l-70.558 70.557a141.992 141.992 0 01-101.067 41.862" fill="#232323"/><path d="M3062.335 1560.467h-100.1c19.021-7.973 34.574-15.2 45.643-20.568h23.643c3.4 3.752 9.2 8.326 19.115 13.229a123.4 123.4 0 0011.7 7.34m382.4-792.174l-.068-5.207s.984 1.549 2.885 4.479l-2.816.729" fill="#506ed5"/><path d="M3347.356 1505.953h-11.326l35.594-20.49c1.955 1.059 3.916 2.1 5.893 3.131l-30.16 17.359m-105.432-3.084a2.564 2.564 0 00.092-.277l44.645-23.461h.1l-44.828 23.738" fill="#473659"/><path d="M3243.996 1495.389a152.487 152.487 0 002.957-15.766l8.867-.109 18.563-.225-30.387 16.1" fill="#84a0ba"/><path d="M3242.006 1502.611c.74-2.447 1.393-4.875 1.977-7.211l30.375-16.088-18.561.225 29.84-.383h1.012l-44.643 23.457" fill="#473659"/><path d="M3297.664 1473.331l9.006-4.756c3.016.07 6.033.115 9.074.115a251.746 251.746 0 0027.338-1.326c2.379 1.83 4.9 3.611 7.479 5.348l-52.9.619" fill="#84a0ba"/><path d="M3285.652 1479.164h.412l20.115-10.584h.484l-9.006 4.766 52.881-.619c2.8 1.9 5.682 3.758 8.639 5.545l-72.447.869h-.07l-1.008.023" fill="#473659"/><path d="M3247.589 1473.965c.563-6.26.494-10.109.494-10.109s8.514 1.215 21.3 2.432c7.5.721 16.441 1.418 25.99 1.869l-10.068 5.338-37.721.471" fill="#84a0ba"/><path d="M3246.943 1479.636c.273-2.057.5-3.955.654-5.672l37.721-.473 10.053-5.33c3.545.178 7.16.316 10.818.406l-20.125 10.592h-.406l-29.84.363-8.875.113" fill="#473659"/><path d="M3328.503 1347.167l38.619-17.52a828.546 828.546 0 00-12.65 16.807l-25.969.713" fill="#84a0ba"/><path d="M3328.519 1347.176l.021-.023 25.951-.711h-.023l-25.949.734" fill="#473659"/><path d="M3306.433 1373.186l43.111-19.932a2.247 2.247 0 01-.2.3l-42.816 19.611-.092.021m8.813-19.977l13.27-6.018 25.949-.756a770.34 770.34 0 00-4.164 5.766l-35.055 1.008" fill="#473659"/><path d="M3260.774 1394.259c-6.842-2.049-13.889-4.254-21.154-6.73l16.428-7.449 37.412-.9-32.686 15.08" fill="#84a0ba"/><path d="M3260.926 1394.28c-.043 0-.09-.021-.135-.021l32.688-15.113-37.408.926 13.17-6.008 37.205-.879.09-.025-13.057 5.986h.5l-33.047 15.135" fill="#473659"/><path d="M3320.675 1372.825l22.473-10.381a401.786 401.786 0 00-6.641 9.992l-15.832.389" fill="#84a0ba"/><path d="M3269.087 1396.656c-2.689-.75-5.4-1.547-8.176-2.344l33.041-15.17 13.027-5.965 13.686-.342 15.828-.41c-1.229 1.936-2.459 3.85-3.621 5.76l-25.164.615-38.621 17.855M3317.223 1408.373c-6.594-1.406-13.623-2.947-21.035-4.715l23.168-.5a91.868 91.868 0 00-2.133 5.213" fill="#473659"/><path d="M3439.86 777.561l-2.27-7.4 2.152-.564.117 7.961" fill="#fbacc1"/><path d="M3445.246 795.002l-5.395-17.461-.117-7.947 5.018-1.312.494 26.721" fill="#9cc4ff"/><path d="M3445.437 795.602l-.187-.611-.494-26.7 2.8-.73c2.992 4.664 8.268 12.787 15.428 23.76l-17.547 4.285" fill="#96a8e6"/><path d="M3435.009 1320.054l9.656-4.477v4.174l-9.656.3" fill="#c9efe8"/><path d="M3434.564 1320.054l10.1-4.643v.164l-9.654 4.479h-.445" fill="#949494"/><path d="M3413.819 1320.686l-21.934-2.271 21.115-9.588h31.66v.518l-24.092 11.131-6.75.211" fill="#c9efe8"/><path d="M3413.823 1320.687l6.75-.211 24.094-11.135v6.072l-10.1 4.641-2.672.068-18.068.564" fill="#949494"/><path d="M3419.417 1321.258l-5.605-.561 18.08-.562-10.746.33-1.729.793" fill="#949494"/><path d="M3444.666 1323.896l-25.242-2.625 1.734-.8 10.732-.354 2.676-.068h.445l9.654-.3v4.148" fill="#949494"/><path d="M3439.645 763.088l480.689-125.346 2.82 705.012-475.648 234.678h-579.982l27.795-54.5 505.689-231.074h46.5l-7.861-528.768" fill="#ccc"/><g clip-path="url(#a)" transform="translate(2867.522 1291.842)"><path d="M711.331 77.414l-56.309 32.461-99.707 2.113 60.791-32.2 95.225-2.371" fill="#a5e5d8"/><path d="M616.833 82.599l-49.666 26.289 87.057-1.809 46.053-26.57zm-73.393 32.463l72.594-38.09 106.352-2.652-67.316 38.4-111.629 2.348M636.927 31.714l-40.209 19.857 70.273-1.971 37.744-19.975zm-65.908 26.219l65.131-31.854 92.736-2.861-61.07 32.039-96.8 2.676" fill="#4d4d4d"/><path d="M682.203 6.155l-45.959 22.744-82.523 2.535 48.914-22.6 79.568-2.678" fill="#a5e5d8"/><path d="M603.291 11.622l-35.793 16.57 68.045-2.109 33.7-16.666-65.955 2.205M539.94 34.696l62.6-28.684 92.668-3.121-58.893 28.848-96.373 2.957" fill="#4d4d4d"/><path d="M645.681-11.027L602.634 8.83l-74.8 2.488 45.395-19.787 72.455-2.559" fill="#a5e5d8"/><path d="M573.861-5.674l-31.359 13.66 59.479-1.973 29.762-13.732-57.881 2.045m-60.721 20.3l59.994-25.936 86.492-3.029-56.9 25.982-89.592 2.982" fill="#4d4d4d"/><path d="M602.636 8.831l-48.914 22.605-77.527 2.391 51.637-22.508 74.8-2.488" fill="#a5e5d8"/><path d="M528.442 14.107l-37.648 16.434 62.27-1.9 35.723-16.525-60.344 1.994m-66.824 22.982l66.119-28.613 88.77-2.934-62.691 28.729-92.2 2.818" fill="#4d4d4d"/><path d="M553.722 31.446l-55.648 25.67-80.57 2.262 58.7-25.553 77.518-2.379" fill="#a5e5d8"/><path d="M476.805 36.638l-44.816 19.52 65.414-1.846 42.521-19.59-63.119 1.916m-73.85 26l73.148-31.631 91.408-2.807-69.363 31.748-95.193 2.689" fill="#4d4d4d"/><path d="M498.077 57.122l-58.527 27.01-83.637 2.047 61.578-26.809 80.586-2.248" fill="#a5e5d8"/><path d="M418.107 62.2L370.283 83l68.6-1.66 45.5-21.031-66.273 1.889m-76.592 27.16l75.9-32.8 94.357-2.65-72.148 33.078-98.107 2.373" fill="#4d4d4d"/><path d="M439.547 84.144l-68.7 31.721-87.211 1.83 72.277-31.52 83.637-2.031" fill="#a5e5d8"/><path d="M356.526 89.018l-58.662 25.533 72.313-1.494 55.762-25.74-69.412 1.7m-87.143 31.816l86.439-37.486 97.3-2.355-82.246 37.707-101.494 2.135" fill="#4d4d4d"/><path d="M370.826 115.886l-71.258 32.855-90.879 1.576 74.936-32.637 87.2-1.795" fill="#a5e5d8"/><path d="M284.241 120.496l-61.4 26.752 76.107-1.336 58.4-26.928-73.105 1.512m-89.684 32.893l89.014-38.543 100.77-2.07-84.7 38.789-105.084 1.824" fill="#4d4d4d"/><path d="M299.567 148.746l-82.742 38.23-95 1.176 86.869-37.82 90.871-1.586" fill="#a5e5d8"/><path d="M209.314 153.146l-73.518 31.984 80.391-1 70.029-32.33-76.9 1.35m-101.465 38.006l100.789-43.654 104.3-1.832-96.057 44.133-109.035 1.354" fill="#4d4d4d"/><path d="M696.451 142.009l-63.277 39.854-105.295 1.314 68.418-39.479 100.154-1.689" fill="#a5e5d8"/><path d="M597.097 146.516l-58.42 33.705 93.672-1.15 54.059-34.08zm-80.016 39.619l78.445-45.252 111-1.879-72.5 45.678-.8.023-116.139 1.43" fill="#4d4d4d"/><path d="M633.174 181.863l-68.184 42.932-110.742.8 73.633-42.414 105.293-1.316" fill="#a5e5d8"/><path d="M528.651 185.995l-63.7 36.688 99.215-.7 59.006-37.156-94.518 1.172m-85.107 42.506l83.559-48.139.727-.021 115.34-1.41-77.365 48.682-122.26.893" fill="#4d4d4d"/><path d="M527.872 183.175l-73.637 42.428-114.861.787 79.117-41.9 109.381-1.316" fill="#a5e5d8"/><path d="M419.229 187.306l-68.3 36.17 102.549-.7 63.615-36.631-97.859 1.158m-91.367 41.992l90.6-47.654 120.2-1.414-83.66 48.189-127.143.879" fill="#4d4d4d"/><path d="M418.501 184.485l-79.117 41.9-104.725.74 83.924-41.4 99.918-1.236" fill="#a5e5d8"/><path d="M319.268 188.53l-72.312 35.67 91.719-.65 68.191-36.1-87.6 1.084m-96.92 41.51l96.2-47.146 111.617-1.4-90.752 47.707-117.066.836" fill="#4d4d4d"/><path d="M318.577 185.721l-83.93 41.408-106.432.787 88.6-40.949 101.76-1.246" fill="#a5e5d8"/><path d="M217.47 189.79l-76.176 35.191 92.686-.682 72.162-35.607-88.672 1.1m-102.314 41.045l101.656-46.7 114.191-1.406-96.324 47.23-119.523.879" fill="#4d4d4d"/><path d="M216.829 186.97l-88.621 40.945-99.3.68 92.91-40.436 95.008-1.189" fill="#a5e5d8"/><path d="M122.441 190.953l-79.713 34.709 84.867-.576 76.046-35.133-81.2 1M15.117 231.5l106.686-46.193 108.26-1.342-101.826 46.77-113.119.766" fill="#4d4d4d"/><path d="M667.746 52.441l-51.637 27.342-87.385 2.162 55.133-27.2 83.889-2.3" fill="#a5e5d8"/><path d="M584.562 57.556l-43.07 21.242 73.865-1.807 40.371-21.408zM515.978 85.09l67.809-33.166 95.93-2.676-63.537 33.375-100.2 2.467" fill="#4d4d4d"/><path d="M616.109 79.785l-60.795 32.205-91.279 1.9 64.686-31.945 87.389-2.162" fill="#a5e5d8"/><path d="M529.405 84.759l-52.719 26.031 77.879-1.641 49.6-26.244-74.758 1.854m-78.021 32.229l77.27-37.885 99.4-2.416-72.693 38.117-103.98 2.184" fill="#4d4d4d"/><path d="M555.315 111.97l-63.219 33.529-95.287 1.586 67.229-33.205 91.277-1.912" fill="#a5e5d8"/><path d="M464.713 116.703l-55.375 27.348 82.025-1.355 52.125-27.65-78.775 1.658m-80.461 33.428l79.736-39.061 103.156-2.176-75.014 39.438-107.879 1.8" fill="#4d4d4d"/><path d="M655.023 109.875l-58.725 33.822-104.215 1.809 63.232-33.52 99.707-2.111" fill="#a5e5d8"/><path d="M556.039 114.784l-52.2 27.7 91.678-1.6 48.522-27.934-88 1.834m-75.719 33.752l74.92-39.389 110.738-2.322-68.889 39.691-116.77 2.02" fill="#4d4d4d"/><path d="M596.297 143.698l-68.418 39.479-109.379 1.291 73.588-38.963 104.209-1.807" fill="#a5e5d8"/><path d="M492.811 148.321l-62.668 33.191 96.961-1.15 58.3-33.658-92.6 1.617m-85.953 39.127l85.178-44.76 115.154-1.994-78.535 45.3-.752.023-121.045 1.43" fill="#4d4d4d"/><path d="M492.07 145.519l-73.582 38.957-99.906 1.258 78.207-38.633 95.281-1.582" fill="#a5e5d8"/><path d="M397.469 149.915l-66.479 32.824 86.8-1.08 62.525-33.123-82.846 1.379m-91.33 38.781l90.594-44.412 107.1-1.793-85.307 44.824-112.385 1.381" fill="#4d4d4d"/><path d="M396.787 147.098l-78.2 38.631-101.758 1.25 82.754-38.252 97.205-1.629" fill="#a5e5d8"/><path d="M300.232 151.559l-70.182 32.422 87.859-1.076 66.348-32.758-84.025 1.412m-96.6 38.406l95.9-44.053 109.795-1.859-90.727 44.5-114.971 1.412" fill="#4d4d4d"/><path d="M636.247 28.898l-52.389 25.84-85.789 2.371 55.652-25.678 82.525-2.533" fill="#a5e5d8"/><path d="M554.381 34.253l-42.6 19.645 71.4-1.973 40.113-19.811-68.912 2.139m-69.994 26.076l69.242-31.713 95.553-2.957-65.227 31.9-99.568 2.771" fill="#4d4d4d"/><path d="M583.86 54.741l-55.135 27.2-89.193 2.207 58.539-27.041 85.789-2.367" fill="#a5e5d8"/><path d="M498.727 59.927L453.143 80.98l74.9-1.854 42.977-21.2-72.293 2m-72.762 27.391L498 54.294l98.721-2.746-67.928 33.213-102.828 2.557" fill="#4d4d4d"/><path d="M528.729 81.942l-64.7 31.934-93.182 1.988 68.7-31.725 89.182-2.2" fill="#a5e5d8"/><path d="M440.207 86.973l-55.863 25.771 79.01-1.672 52.637-26-75.783 1.9m-82.869 32.016l82.146-37.658 102-2.529-77.385 37.914-106.758 2.273" fill="#4d4d4d"/><path d="M464.028 113.892l-67.25 33.2-97.2 1.639 71.254-32.865 93.2-1.977" fill="#a5e5d8"/><path d="M371.464 118.704l-58.514 27 83.154-1.414 55.254-27.295-79.895 1.713m-85.281 33.09l84.572-38.75 105.93-2.236-79.869 39.137-110.633 1.85" fill="#4d4d4d"/></g><path d="M3460.409 1560.467h-259.912a90.957 90.957 0 0022.58-20.578h232.889a16.967 16.967 0 0016.98-16.963 16.993 16.993 0 00-14.43-16.779l-3.682-197.494a16.964 16.964 0 0014.668-16.82 17 17 0 00-15.3-16.879l-8.965-479.971.209.633 17.533-4.314c32.436 49.654 103.67 157.293 179.109 262.355-.1 1.658 50.021 68.766 50.338 68.736 75.887 101.332 148.25 186.549 182.211 194.406l34.354 16.641-448.586 227.027" fill="#b9b5b5"/><path d="M3415.261 1505.975h-67.908l30.16-17.375c12.746 6.627 25.865 12.488 37.748 17.375M3336.02 1505.976h-95.082q.516-1.553.969-3.1l44.826-23.725 72.438-.875c4.023 2.484 8.207 4.875 12.436 7.2l-35.586 20.508M3269.254 1374.073l45.99-20.869 35.066-1.008c-.254.367-.506.711-.756 1.055l-43.109 19.932-37.191.891" fill="#84a0ba"/><path d="M3293.464 1379.171l13.07-6.012 42.8-19.607q-3.149 4.424-6.189 8.912l-22.465 10.354-13.687.342-13.025 5.988-.5.023" fill="#473659"/><path d="M3296.191 1403.672a667.422 667.422 0 01-27.117-7.033l38.627-17.836 25.166-.613a211.177 211.177 0 00-13.516 24.979l-23.16.5" fill="#84a0ba"/><path d="M3892.543 1311.588l-9.141-623.447-420.4 103.156c-7.191-10.959-12.434-19.1-15.436-23.734l470.711-122.754v631.613a16.971 16.971 0 00-9.852 16.355l.58 10.7-16.465 8.113" fill="#e0e0e0"/><path d="M3461.824 776.116l10.73 719.742 435.838-214.58V659.665zm-5.855 763.771a16.891 16.891 0 01-8.846-2.5 16.956 16.956 0 01-8.105-14.211l-11.339-759.855a16.979 16.979 0 0112.688-16.662l480.712-125.377a17 17 0 0114.65 3.021 16.966 16.966 0 016.594 13.4v654.152a17.014 17.014 0 01-9.457 15.229l-469.4 231.066a16.964 16.964 0 01-7.5 1.742" fill="#232323"/><path d="M2900.34 1539.903a16.939 16.939 0 01-15.428-9.955 16.946 16.946 0 018.42-22.459l508.984-231.1a17.147 17.147 0 017.025-1.512h43.193a16.965 16.965 0 0116.961 16.963 16.986 16.986 0 01-16.961 16.984h-39.535l-505.635 229.543a16.932 16.932 0 01-7.025 1.537" fill="#232323"/><path d="M3464.452 1594.392h-586.254a16.977 16.977 0 01-14.078-7.48 17 17 0 01-1.645-15.869l22.135-54.5a16.981 16.981 0 0115.723-10.572h555.635a16.977 16.977 0 0116.969 16.965 16.978 16.978 0 01-16.969 16.963h-544.209l-8.348 20.576h556.987l450.2-227.858-2.172-39.818a16.96 16.96 0 0115.982-17.893 16.92 16.92 0 0117.871 16.01l2.836 50.9a16.94 16.94 0 01-9.279 16.066l-463.729 234.7a17.048 17.048 0 01-7.66 1.814" fill="#232323"/><path d="M2280 1205.476s62.254 7.436 112.41-42.719 157.752-221.531 365.123-221.531c207.355 0 211.766 17.781 264.229 144.615s56.486 234.879 38.457 277.936c-18.033 43.076-359.236 221.592-575.811 238.9-215.127 17.162-250.172 4.514-250.172 4.514s-96.219-167.648 45.764-401.719" fill="#44cb44"/><path d="M3160.855 423.053s-282.676 107.6-517.344-97.129c0 0 102.061 167.4 33.584 257.516-68.453 90.092-155.168 61.24-203.1 13.309 0 0-117.506 78.99-72.7 167.4 44.752 88.438 129.887 61.314 129.887 61.314l70.1 85.059s-155.846-4.854-248.629-146.373-90.793-352.947-36.182-438.229c54.611-85.307 138.168-207.959 315.066-239.33 176.924-31.375 379.637 6.313 465.84 121.316 86.2 114.977 63.477 215.143 63.477 215.143" fill="#994636"/><path d="M2752.4159999999997 79.72399999999999a692.249 692.249 0 00-120.268 10.371c-181.027 32.1-263.453 160.82-312.705 237.734-56.8 88.719-53.381 297.8 36.162 434.379 78.59 119.9 204.563 140.693 237.639 144.115l-63.363-76.84c-14.326 3.57-90.395 18.045-131.8-63.727-45.633-90.174 72.713-171.145 73.928-171.943a3.5 3.5 0 014.467.436c29.971 29.969 69.168 46.457 104.6 43.982 34.924-2.381 66.279-21.543 93.188-56.953 66.2-87.139-32.811-251.846-33.809-253.521a3.57 3.57 0 01.729-4.543 3.547 3.547 0 014.641.051c220.613 192.441 487.152 105.789 511.9 97.143 2.453-14.182 14.547-106.639-63.193-210.365-69.895-93.234-209.564-130.318-342.115-130.318m-151.135 834.35h-.1c-1.6-.051-158.809-6.557-251.508-147.975-90.949-138.77-94.156-351.592-36.211-442.08 64.529-100.74 147.588-210.777 317.443-240.918 160.387-28.437 375.684-2.184 469.279 122.67 86.191 114.994 64.334 217.045 64.092 218.064a3.591 3.591 0 01-2.186 2.525c-2.793 1.045-275.379 101.564-505.975-85.17 24.141 45.391 80.678 169.492 23.8 244.391-28.221 37.107-61.3 57.191-98.383 59.721-37.254 2.525-76.428-13.48-107.928-43.937-16.148 11.707-108.559 83.473-69.187 161.186 42.91 84.76 124.826 59.795 125.654 59.529a3.543 3.543 0 013.813 1.115l70.113 85.074a3.532 3.532 0 01.463 3.813 3.561 3.561 0 01-3.184 1.992" fill="#390075"/><path d="M2306.671 323.65s-55.854-158.711 50.469-237.117c106.322-78.436 187.387-71.187 286.359-6.93 0 0-210.186 35.949-336.828 244.047" fill="#994636"/><path d="M2502.398 33.197c-46.65 0-92.322 18.682-143.15 56.166-90.133 66.459-60.613 193.979-51.494 225.785 111.713-177.807 286-227.752 326.537-237.215-47.684-29.791-90.182-44.736-131.893-44.736m-195.725 294l-.369-.025a3.548 3.548 0 01-2.975-2.359c-.566-1.6-55.479-162.076 51.715-241.148 101.439-74.82 182.871-76.809 290.383-7.053a3.592 3.592 0 011.521 3.686 3.568 3.568 0 01-2.875 2.8c-2.088.342-210.105 38.148-334.377 242.377a3.51 3.51 0 01-3.023 1.721" fill="#390075"/><path d="M2697.24 1056.183s107.924 181.93 252.83 159.764c0 0 47.66-41.139 33.5-137.207-14.176-96.064-14.176-74.127-14.176-74.127s-156.182 35.863-260.131-26.283l-12.025 77.854" fill="#f9cba5"/><path d="M1873.388 1307.063s30.771-20.166 77.025-55.2c46.236-35.008 182.785-152.959 328.129-56.5 0 0-118.955 266.428-44.287 404.832 0 0-326.43 34.4-384.164-7.852 0 0-78.582-94.744 23.3-285.285" fill="#534741"/><path d="M1456.96 686.598s197.3 130.213 255.3 158.479c62.636 30.512 19.49 409.713 38.185 422.266 18.675 12.553 122.925 39.736 122.925 39.736s-97.516 154.109-23.287 296.584c0 0-194.223-30.449-253.474-122.615-59.233-92.189-64.379-553.008-64.379-553.008s-152.436-124.7-75.274-241.441" fill="#f9cba5"/><path d="M1596.607 778.12s5.355-141.207 39.3-141.207c33.925 0 118.336 102.6 151.539 166.688 33.185 64.109 5.034 367.426 29.456 385.527 24.4 18.105 180.688 27.738 180.688 27.738l-124.223 90.229-134.247-39.75s11.85-383.562-26.865-422.254c-38.682-38.715-115.644-66.971-115.644-66.971M2507.022 1158.849s41.949-102.988 126.514-75.41c41.555 13.561 70.1 51.889 74.279 95.379l22.6 235.641s184.719-2.146 238.426-19.35c53.709-17.156 141.318-70.865 258.607-10.725s155.961 21.471 155.961 60.143c0 38.65-135.322 19.328-135.322 19.328s2.145 98.814-90.213 111.705c-92.383 12.869-131.033-45.244-131.033-45.244s-253.49 137.61-449.09 81.959c-125.822-35.814-70.729-453.426-70.729-453.426M2643.505 325.912s268.387 225.545 517.342 97.141c0 0 49.316 284.428-12.984 440.881s-240.178 168.262-347.293 140.686c-107.115-27.6-226.219-81.916-269.4-179.166 0 0-107.254 25.563-129.9-61.3-22.621-86.846 5.949-140.5 72.73-167.4 0 0 76.189 74.9 147.813 35.311 71.643-39.584 94.332-100.328 75.443-148.172-18.889-47.867-53.75-157.969-53.75-157.969" fill="#f9cba5"/><path d="M3175.989 792.686s-50.47 177.537-189.211 215.83c0 0 79.32 167.641 79.32 251.395s-12.352 112.7-12.352 112.7 85.684-30.477 147.34 0l-86.211-355.355s73.18-64.973 73.18-125.164c0-60.207-12.066-99.4-12.066-99.4" fill="#f9cba5"/><path d="M2696.202 969.075c-.3-.039-.586-.1-.889-.152a540.803 540.803 0 01-6.125-2.977 332.745 332.745 0 007.014 3.129" fill="#9252b3"/><path d="M2448.572 609.426a126.193 126.193 0 0111.863-6.861c-.295.248-.588.479-.9.73q-5.71 2.886-10.961 6.131" fill="#7c3149"/><path d="M2520.929 827.265c6.391-.879 10.229-1.8 10.229-1.8a86.7 86.7 0 01-10.229 1.8m-61.395-223.961c.314-.252.607-.479.879-.732a95.576 95.576 0 0113.563-5.8q-7.544 3.05-14.441 6.537" fill="#390075"/><path d="M2729.04 978.243a207.8 207.8 0 00-32.846-9.16 406.168 406.168 0 01-7-3.145 417.88 417.88 0 01-82.166-53.176 87.515 87.515 0 0014.211-2.223l-77.721-77.721c-2.324.5-4.629.965-6.873 1.342a333.62 333.62 0 01-5.49-8.7s-3.838.926-10.23 1.8a131.1 131.1 0 01-16.895 1.092c-19.029 0-44.875-4.131-66.57-22.2a202.736 202.736 0 01-26.3-34.92 151.332 151.332 0 01-10.377-31.23c-4.816-21.7-5.049-40.309-2.322-56.281 12.135-38.564 44.539-61.1 44.539-61.1a311.012 311.012 0 01-5.2-5.365 127.129 127.129 0 0110.775-7.84c3.5-2.135 7.145-4.191 10.961-6.121q6.885-3.486 14.441-6.537s12.912 46.678 69.545 61.266c0 0 18.133 231.148 185.521 320.211" fill="#dbab9b"/><path d="M2698.574 548.258a138.169 138.169 0 004.709-23.4 100.742 100.742 0 01-4.709 23.4m266.732-86.82c-1.045-.064-2.021-.152-3.068-.236 1.152.064 2.309.131 3.463.219a3.008 3.008 0 00-.395.018" fill="#bf528d"/><path d="M2687.642 557.739a162.555 162.555 0 008.633-36.135 128.446 128.446 0 01-8.633 36.135" fill="#7c3149"/><path d="M2651.652 611.035s22.43-16.262 35.984-53.307a127.85 127.85 0 008.639-36.139 200.878 200.878 0 001.037-37.545 91.436 91.436 0 016 40.793 143.953 143.953 0 01-4.719 23.406c-6.973 21.3-21.223 42.369-43.281 60.969a81.524 81.524 0 01-3.66 1.822" fill="#390075"/><path d="M2655.315 609.232c22.055-18.619 36.309-39.68 43.273-60.988a101.66 101.66 0 004.705-23.393 91.045 91.045 0 00-5.971-40.809c-1.424-22.826-6.514-49.047-17.01-78.932a202.76 202.76 0 00-29.229-65.441q-3.633-6.785-7.58-13.758s53.684 46.332 136.953 84.789c21.018 11.129 90.918 44.568 181.789 50.494 1.043.09 2.037.158 3.078.25-21.922 1.514-45.2 2.416-69.246 2.416-49.791 0-102.953-3.979-154.416-15.109 0 0 0 115.938-86.348 160.48" fill="#dbab9b"/><path d="M3065.008 455.031a384.454 384.454 0 0057.445-15.771 194.04 194.04 0 005.219-1.227 383.853 383.853 0 01-62.664 17M2592.303 913.347c-25.037-.158-64.566-6.014-111.738-32.729 49.369 23.9 93.475 30.807 111.738 32.729M2327.01 726.513c-74.271-124.488-73.609-283.373-21.264-399.459a2.409 2.409 0 00.549.113l.367.021a3.575 3.575 0 003.045-1.719q8.379-13.764 17.256-26.592l14.076-16.322c-9.635 13.826-18.768 27.744-27.557 41.449-52.664 82.285-54.838 265.592 13.527 402.508" fill="#bf528d"/><path d="M2593.249 906.344c-33.09-3.449-159.047-24.232-237.635-144.113-89.545-136.605-92.992-345.676-36.162-434.4 20.525-32.039 46.809-73.092 83.6-112.422-19.875 56.27-85.418 273.377 34.482 401.549-21.668 16.451-35.764 38.1-41.287 65.426-10.439 25.117-13.141 53.754 1.842 83.393a155.932 155.932 0 0010.229 17.313c9.973 19.852 25.605 31.453 42.383 38.025a96.287 96.287 0 003.7 1.77c9.043 6.477 25.4 14.141 52.076 14.141a168.682 168.682 0 0027.633-2.422l3.824 4.662c13.7 25.35 32.688 47.578 55.24 67.01l.072.07" fill="#823627"/><path d="M2593.392 913.355h-1.1c-18.271-1.916-62.379-8.824-111.734-32.746-38.766-21.934-82.66-57.943-127.912-116.447a376.062 376.062 0 01-25.645-37.643c-68.377-136.916-66.205-320.229-13.535-402.512 8.8-13.7 17.922-27.605 27.559-41.447l58.74-68.119c1.818-1.7 3.639-3.383 5.438-5.039a522.573 522.573 0 00-2.148 6c-36.8 39.348-63.078 80.4-83.613 112.438-56.824 88.725-53.4 297.8 36.172 434.389 78.574 119.906 204.547 140.674 237.613 144.129l-.045-.068q4.058 3.5 8.262 6.881c-2.475.117-5.16.189-8.053.189m-55.473-74.1l-3.828-4.646c.447-.068.865-.137 1.309-.207a252.784 252.784 0 002.52 4.854m-83.521-16.361c-1.236-.559-2.449-1.166-3.687-1.771.865.324 1.729.678 2.613.979.35.26.7.539 1.074.793m-46.09-39.811a153.481 153.481 0 01-10.223-17.314c-14.98-29.641-12.275-58.271-1.844-83.385-4.666 23.082-3.2 50.246 5.02 81.773a93.747 93.747 0 007.047 18.926" fill="#390075"/><path d="M2306.662 327.186l-.373-.021a2.287 2.287 0 01-.537-.119 424.723 424.723 0 013.6-7.752v.023l17.629-20.432q-8.862 12.82-17.279 26.6a3.527 3.527 0 01-3.035 1.705m93.125-112.76l6.277-7.287q-.381 1.052-.84 2.244c-1.82 1.682-3.617 3.338-5.437 5.043" fill="#390075"/><path d="M2601.472 913.144a292.366 292.366 0 01-8.275-6.875c-22.543-19.441-41.547-41.672-55.256-67.029a348.796 348.796 0 01-2.543-4.857c.439-.082.832-.164 1.273-.229a355.158 355.158 0 0070.365 78.6c-1.711.146-3.564.293-5.564.395m-148.129-91.055c-.875-.311-1.748-.646-2.623-.977-16.795-6.588-32.4-18.191-42.4-38.027a95.619 95.619 0 01-7.043-18.941c-8.209-31.525-9.687-58.7-5.021-81.783 5.521-27.338 19.629-48.965 41.277-65.406.1.105.186.189.291.291-16.65 13.5-33.9 34.7-39.361 66.469-7.416 23.631-7.229 53.3 12.711 87.514 7.188 15.252 16.314 26.566 26.316 34.9 2.4 2.625 4.939 5.25 7.584 7.918a38.049 38.049 0 008.271 8.039" fill="#bf8e97"/><path d="M2607.019 912.751a354.029 354.029 0 01-70.377-78.588c2.25-.4 4.543-.854 6.873-1.334l77.713 77.717a88.065 88.065 0 01-14.209 2.207m-169.551-106.59c-10-8.355-19.127-19.668-26.293-34.918a202.259 202.259 0 0026.293 34.918m-39.025-122.426c5.457-31.771 22.707-52.982 39.355-66.482a254.42 254.42 0 005.189 5.373s-32.4 22.523-44.545 61.109" fill="#97638d"/><path d="M2718.118 1086.6c-37.213-32.164-103.322-94.014-81.955-110.631 9.131-7.088 21.607-9.547 34.482-9.547a136.71 136.71 0 0124.7 2.5c42.463 20.221 74.883 27.451 77.539 28.023 2.236.652 4.438 1.307 6.652 1.939 20.578 6.756 45.969 13.213 73.16 15.8-46.7-1.424-99.7-10.217-143.43-36.359l-12.02 77.852s7.387 12.438 20.875 30.42" fill="#3daa3d"/><path d="M2741.666 1106.303s-9.8-7.83-23.547-19.713c-13.477-17.979-20.865-30.428-20.865-30.428l12.008-77.844c43.744 26.148 96.729 34.947 143.441 36.379 8.09.768 16.383 1.191 24.717 1.191h.322q8.622.39 17.414.4 9.047 0 18.219-.443c-12.873 16.666-75.424 90.453-171.709 90.453" fill="#dbab9b"/><path d="M2895.146 1016.303c-5.854 0-11.668-.143-17.4-.406a211.968 211.968 0 0038.1-3.332s-.826 1.193-2.48 3.293q-9.152.454-18.217.445m-115.621-17.406c-2.221-.648-4.424-1.295-6.643-1.959a1.815 1.815 0 00.182.061 281.632 281.632 0 01-44-18.76c.141.059.2.08.2.08s19.932 10.623 50.26 20.578" fill="#bf8e97"/><path d="M2772.864 996.954c-2.648-.561-35.1-7.8-77.551-28.025.307.057.578.115.885.154a652.838 652.838 0 0076.666 27.871" fill="#7739a0"/><path d="M2773.044 996.988a.672.672 0 01-.191-.039 651.5 651.5 0 01-76.646-27.871 206.065 206.065 0 0132.838 9.172 280.492 280.492 0 0044 18.738" fill="#97638d"/><path d="M2784.089 1413.123c-23.67-1.418-43.109-3.4-53.873-4.643l-3.76-116.645s51.477 99.645 105.311 119.279a2470.607 2470.607 0 01-47.678 2.008" fill="#3daa3d"/><path d="M2849.438 1414.461h-37.492a976.066 976.066 0 01-27.877-1.326c14.4-.473 30.746-1.125 47.682-2.016a51.821 51.821 0 0017.688 3.342" fill="#bf8e97"/><path d="M2978.484 1295.697c-15.119-30.758-68.334-65.566-101.529-85.023a171.506 171.506 0 0048.545 7.168 161.126 161.126 0 0024.561-1.881s8.654-7.457 17.494-23.467c16.32-8.344 23.984-17.621 23.984-17.621-20.512 60.422-13.055 120.824-13.055 120.824" fill="#3daa3d"/><path d="M2925.517 1217.828a172.607 172.607 0 01-48.547-7.156c-16.119-9.455-27.523-15.3-27.523-15.3 23.031 7.3 43.051 10.092 60.174 10.092 25.475 0 44.609-6.174 57.941-12.984-8.842 16-17.494 23.465-17.494 23.465a159.777 159.777 0 01-24.551 1.885" fill="#bf8e97"/><path d="M3057.888 1357.999c-.635-26.687-4.434-140.918-25.211-238.318 17.547 48.521 33.424 102.764 33.424 140.221 0 51.244-4.621 81.965-8.213 98.1" fill="#9252b3"/><path d="M2992.418 1006.863c-.461-.75-.941-1.443-1.424-2.156a71.175 71.175 0 009.844-2.891 224.077 224.077 0 0037.383-15.643 204.682 204.682 0 01-45.8 20.689" fill="#bf528d"/><path d="M3057.99 1363.699c-.023-.453-.043-2.406-.107-5.693 3.586-16.133 8.205-46.854 8.205-98.109 0-37.443-15.852-91.686-33.4-140.213-9.475-44.406-22.471-85.307-40.279-112.824a204.742 204.742 0 0045.8-20.666c31.557-16.756 63.438-43.717 87.865-86.961-13.666 27.068-29.605 56.412-45.244 80.105-21.764 32.977-29.646 73.127-21.031 111.688 17.1 76.477 40.086 193.813 50.16 267.412h-.021a272.614 272.614 0 00-51.943 5.262" fill="#dbab9b"/><path d="M3159.734 827.961c.152-.564.281-1.105.453-1.648 1.109-2.3 2.238-4.646 3.365-7.014 0 0-1.082 2.541-3.082 7.035l-.736 1.627" fill="#bf528d"/><path d="M3139.38 872.123c.021-.043.045-.084.064-.129q4.652-11.03 8.74-22.342 6.021-11.13 12-23.34c-.152.541-.3 1.082-.455 1.648l-20.288 44.034c-.02.045-.043.086-.064.129" fill="#bf8e97"/><path d="M2641.498 1623.839a218.178 218.178 0 01-24.818-3.072c8.215 1.313 16.49 2.314 24.818 3.072" fill="#973986"/><path d="M3050.627 1553.122c-9.922-4.9-15.725-9.48-19.107-13.221h3.467a118.173 118.173 0 0015.641 13.221" fill="#494db8"/><path d="M3148.961 1577.436c-2.457 0-4.979-.09-7.588-.285a190.04 190.04 0 0016.492-1.6c16.512-2.3 30-7.346 41.008-14.078-13.006 9.648-29.385 15.965-49.912 15.965m-113.965-37.543h-3.463a25.466 25.466 0 01-1.514-1.844 11.18 11.18 0 00-8.859-4.406c-.242 0-.484 0-.723.023 4.166-2.148 6.4-3.357 6.4-3.357a70.729 70.729 0 008.158 9.584" fill="#390075"/><path d="M2495.981 1398.244a471.256 471.256 0 01-.979-66.8 128.366 128.366 0 01-9.209 9.877 662.824 662.824 0 0113.543-110.236 11.258 11.258 0 00-.848-7.494c-8.486-16.723-10.582-38.846 8.525-64.742-.092.594-16.057 122.027-11.033 239.4m57.719-301.125a50.231 50.231 0 0114.463-9.174 100.622 100.622 0 00-14.463 9.174" fill="#9252b3"/><path d="M2662.528 1624.544c-7.2 0-14.207-.223-21.029-.711-8.334-.758-16.605-1.758-24.83-3.07-20.16-3.689-37.725-10.291-51.48-20.561a138.581 138.581 0 01-27.322-27.363c-12.379-30.922-35.41-97.029-41.877-174.609-5.025-117.369 10.938-238.785 11.025-239.383 22.584-30.633 33.609-50.129 46.68-61.73a101.587 101.587 0 0114.471-9.182 65.907 65.907 0 0116.762-4.246 19.88 19.88 0 012.934-.156c10.67 0 30.676 5.158 22.674 8-27.518 9.8-78.09 66.266-76.781 153.715 0 1.023-.309 2-.264 3.023 4.334 102.1 11.848 262.1 51.391 289.934 34.947 24.563 77.916 33.7 123.262 33.7 131.439 0 282.955-76.691 317.207-76.691 27.252 0 72.467 43.037 117.971 43.037 28.943 0 58.018-17.408 82.625-74.357a10.89 10.89 0 0110.068-6.492 11.351 11.351 0 017 2.445 11.146 11.146 0 014.09 10.627c-3.023 17.582-14.139 65.711-48.236 91.006-11.006 6.713-24.5 11.76-41.014 14.068q-8.534 1.2-16.471 1.6a119.883 119.883 0 01-12.605-1.6c-39.145-7.045-63.264-15.092-78.156-22.426a117.962 117.962 0 01-15.627-13.227 72.638 72.638 0 01-8.16-9.582s-2.221 1.2-6.4 3.334a11.7 11.7 0 00-3.533.822c-44.213 18.252-226.516 90.074-354.375 90.074" fill="#dbab9b"/><path d="M2106.035 1618.61a929.922 929.922 0 01-93.988-5.244c95.361-.83 198.979-10.809 218.791-12.809.127.271.256.527.383.785-34.59 12.68-78.969 17.268-125.186 17.268m-263.508-30.814a242.388 242.388 0 01-13.259-39.82c5.663 19.59 12.955 32.688 17.226 39.293-1.088.16-2.415.35-3.967.527m-63.89-.527c-44.538-5.486-102.734-23.3-153.03-73.551 41.916 36.334 104.558 59.73 153.03 73.551" fill="#973986"/><path d="M1547.762 1240.088h-.134c-16.768-154.136-15.408-312.043-15.408-312.043s-13.858-10.322-30.765-30.006a322.768 322.768 0 0030.78 30.006s1.785 161.227 15.524 312.039" fill="#bf528d"/><path d="M1548.494 1247.912c-.306-2.6-.579-5.238-.868-7.824h.136c.238 2.586.493 5.221.732 7.824" fill="#973986"/><path d="M2261.568 1237.935v-.018h.018a.017.017 0 00-.018.018" fill="#bf528d"/><path d="M2369.971 1603.728c-72.854 0-135.744-3.531-135.744-3.531-.984.4-1.988.771-2.994 1.148-.123-.27-.25-.539-.395-.807 2.225-.215 3.389-.342 3.389-.342-35.4-65.65-27.26-160.1-8.906-241.289-10.594 55.488-15.162 104.471-15.162 104.471 167.143-28.07 249.783-96.459 275.648-122.055-2.781 71.512 6.072 144.277 31.863 198.1 7.17 21.2 16.4 39.141 28.156 52.172-43.873 9.553-113.52 12.133-175.855 12.133" fill="#3daa3d"/><path d="M2012.043 1613.36a1412.244 1412.244 0 01-161.963-26.664s-1.24.24-3.576.578c-4.291-6.623-11.578-19.719-17.229-39.3a260.283 260.283 0 01-6.932-52.477c10.711 2.93 100.34 26.7 183.514 26.7 68.908-.02 133.391-16.33 144.8-74.375 25.934-132.111 110.234-209.277 110.914-209.908v.018c-16.176 31.023-28.027 77.951-36.25 120.992-18.355 81.166-26.51 175.635 8.906 241.289 0 0-1.178.1-3.391.342-19.8 1.988-123.426 11.986-218.791 12.8" fill="#4b413b"/><path d="M1813.525 1589.399a285.816 285.816 0 01-34.9-2.146c-48.463-13.8-111.094-37.207-153.021-73.523a1.244 1.244 0 00-.142-.139c-41.083-41.1-64.1-151.58-76.978-265.668-.24-2.592-.5-5.242-.724-7.834-13.746-150.809-15.531-312.043-15.531-312.043a322.408 322.408 0 01-30.779-30c-29.56-34.453-68.4-97.59-58.426-184.33 0 0 34.958 162.57 119.206 192.51a18.683 18.683 0 0112.569 19.92c-11.182 85.18 38.914 491.229 79.452 533.475 39.292 40.955 77.146 52.188 106.863 52.188 36.093 0 60.182-16.6 60.182-16.6s.345.1 1.052.285a260.969 260.969 0 006.924 52.49 242.906 242.906 0 0013.26 39.816 249.49 249.49 0 01-29.008 1.6" fill="#dbab9b"/><path d="M2545.819 1591.61c-11.758-13.031-20.988-30.971-28.156-52.174a191.083 191.083 0 0020.18 33.426c4.822 12.025 8.029 18.729 8.029 18.729a.061.061 0 01-.053.02" fill="#bf8e97"/><path d="M2517.67 1539.426c-25.791-53.816-34.629-126.588-31.879-198.1a128.711 128.711 0 009.213-9.887 471.962 471.962 0 00.973 66.809c2.188 51.3 8.4 101.85 21.693 141.182" fill="#7739a0"/><path d="M2537.858 1572.854a190.28 190.28 0 01-20.2-33.42c-13.283-39.324-19.5-89.869-21.7-141.186 6.488 77.592 29.51 143.686 41.9 174.605" fill="#97638d"/><path d="M1858.977 1303.22c-20.406-5.559-58.111-16.113-83.957-25.273l85.1 25.186c-.369.033-.773.066-1.143.088" fill="#973986"/><path d="M1859.284 1303.31c-.1-.033-.215-.049-.316-.082.367-.018.766-.051 1.131-.068l.482.135c-.414 0-.865.016-1.3.016m20.525-.916l.217-.148c.131.033.264.066.381.1a4.8 4.8 0 01-.6.049" fill="#390075"/><path d="M1819.876 1190.94a22.4 22.4 0 01-2.963-1.818c-19.844-14.709-4.971-217.678-16.509-327.662 2.735-4.184 4.205-7.084 4.205-7.084-1.532 141.967 11.248 293.152 15.267 336.564m-138.8-369.23c-18.99-11.184-44.584-24.006-71.819-37.158a162.98 162.98 0 00-1.926-1.2 24.015 24.015 0 01-.059-1.035c15.533 6.381 45.477 19.658 72.356 37.1.484.766.964 1.533 1.447 2.3m-70.969-146.256c2.041-11.641 5.045-20.8 9.367-25.125-3.655 6.67-6.746 15.369-9.367 25.125m34.521-36.785a32.246 32.246 0 00-5.6-1.512 9.575 9.575 0 011.461-.105 5.122 5.122 0 014.138 1.617" fill="#bf528d"/><path d="M1854.879 1303.319c-31.823 0-84.236-4.418-102.149-31.963l22.292 6.6c25.841 9.152 63.55 19.715 83.959 25.264.1.021.218.059.317.082-1.426.018-2.892.018-4.419.018m-118.2-327.556c-4.34-42.066-10.265-79.994-18.469-106.666 2.18 2.3 4.4 4.6 6.7 6.9h.019c5.608 24.43 9.334 59.939 11.752 99.77m-127.413-191.224a82.29 82.29 0 00-1.922-.93 1.364 1.364 0 01-.021-.279c.653.4 1.288.795 1.942 1.209" fill="#bf8e97"/><path d="M1860.601 1303.28l-.5-.123-85.086-25.209-22.287-6.586a36.594 36.594 0 01-2.3-4.02c-2.051-30.447-1.906-176.469-13.754-291.568-2.422-39.83-6.151-75.332-11.744-99.773 11.538 11.559 22.349 15.867 32.063 15.867 20.65 0 36.309-19.551 43.413-30.428 11.516 110-3.356 312.988 16.486 327.672a22.671 22.671 0 002.963 1.82c.725 7.975 1.159 12.307 1.159 12.307s7.912 84.65 59.011 99l-.229.146c-2.07.188-9.216.723-19.2.891m-180.97-483.863c-26.884-17.459-56.828-30.719-72.359-37.1-1.032-20.525-2.947-73.779 2.836-106.855 2.62-9.754 5.711-18.477 9.366-25.125 0-.018 0-.018.016-.018 9.494-9.51 15.687-12.553 19.541-13.154a30.768 30.768 0 015.6 1.514.4.4 0 01.043.082s-24.161 85.523 34.961 180.654" fill="#dbab9b"/><path d="M2288.914 1205.836a84.991 84.991 0 01-8.9-.381s57.758-10.646 116.318-46.744a163.847 163.847 0 01-3.922 4.029c-38.67 38.668-84.535 43.1-103.5 43.1" fill="#bf528d"/><path d="M2253.42 1276.46l26.584-71a81.406 81.406 0 008.9.4c18.969 0 64.822-4.439 103.5-43.113a140.58 140.58 0 003.918-4.023c32.736-20.176 65.725-48.309 88.986-87 0 0-27.5 102.379-115.932 147.475-62.693 31.963-115.949 57.264-115.949 57.264" fill="#3daa3d"/><path d="M2293.068 281.708a152.594 152.594 0 01-4.289-48.469 314.426 314.426 0 004.289 48.469" fill="#bf528d"/><path d="M2307.755 315.139c-6.408-22.355-22.9-92.027-.812-154.5a286.96 286.96 0 0118.652-36.752c1.863-2.7 3.824-5.355 5.9-7.937-12.719 53.1 63.627 72.281 82.609 76.178q-14.382 12.267-28.574 26.182c-21.779 18.078-40.953 40.574-57.117 66.3q-10.617 14.6-20.662 30.533" fill="#823627"/><path d="M2309.345 319.301a134.481 134.481 0 01-16.268-37.584 312.131 312.131 0 01-4.281-48.492c1.721-26.961 9.59-52.271 18.133-72.607-22.08 62.514-5.6 132.178.838 154.521a537.793 537.793 0 0120.645-30.527 350.86 350.86 0 00-19.066 34.689m76.2-101.006q14.177-13.922 28.563-26.172c2.682.551 4.211.813 4.211.813l-12.248 14.189c1.316-3.5 2.082-5.359 2.082-5.359a223.484 223.484 0 00-22.607 16.529m-59.953-94.424c3.9-6.459 6.482-10.1 6.482-10.1-.215.742-.381 1.436-.572 2.178a141.99 141.99 0 00-5.91 7.92" fill="#390075"/><path d="M2326.975 298.874a532.09 532.09 0 0135.572-45.791q-11.177 14.637-21.5 29.482l-14.072 16.309" fill="#973986"/><path d="M2341.038 282.535c6.9-9.857 14.053-19.717 21.51-29.459a537.579 537.579 0 0137.244-38.664l-58.754 68.123" fill="#390075"/><path d="M2328.403 284.626c16.18-25.727 35.342-48.217 57.113-66.309a534.681 534.681 0 00-57.113 66.309" fill="#682256"/><path d="M2309.339 319.331v-.025a345.6 345.6 0 0119.08-34.678 532.4 532.4 0 0157.1-66.312 226.661 226.661 0 0122.611-16.535s-.773 1.873-2.08 5.379l-6.291 7.273a534.19 534.19 0 00-37.227 38.652 533.1 533.1 0 00-35.566 45.809l-17.631 20.438" fill="#390075"/><path d="M2989.813 462.119c-8.176 0-16.234-.244-24.1-.7a744.35 744.35 0 007.576-.557c6.8.338 13.693.508 20.615.508a397.023 397.023 0 0071.1-6.342 396.123 396.123 0 01-75.191 7.094m-16.523-1.262c-41.482-2.031-81.021-9.992-117.393-21.148a549.163 549.163 0 00127.068 14.615 598.627 598.627 0 00150.742-19.311c-3.777 1.477-7.5 2.9-11.254 4.26-17.111 3.848-74.656 15.9-149.164 21.584M2646.906 80.492a.606.606 0 01.045-.193 3.718 3.718 0 00-.457-2.59 458.164 458.164 0 0191.3-8.932 557.822 557.822 0 0196.992 8.809 691.711 691.711 0 00-82.713-4.887 705.385 705.385 0 00-105.172 7.793" fill="#fbacc1"/><path d="M2982.984 447.283c-58.156 0-125.705-8.781-194.553-36.318a510.86 510.86 0 00123.92 15.033c126.02 0 216.441-44.666 216.441-44.666-20.875-79.154-69.139-222.043-263.113-260.146-35.016-6.877-70.852-9.654-105.92-9.654-147.639 0-281.6 49.254-281.6 49.254s10.16-11.1 30.768-25.6a560.747 560.747 0 0164.1-30.264 429.246 429.246 0 0159.123-14.842 694.167 694.167 0 01120.277-10.352c95.3 0 194.266 19.16 268.352 64.576a331.654 331.654 0 0145.707 34.557 238.581 238.581 0 0128.041 31.18c77.756 103.721 65.664 196.2 63.2 210.361-12.018 4.2-81.324 26.883-174.742 26.883" fill="#c29086"/><path d="M2982.982 454.318a548.259 548.259 0 01-127.066-14.629 484.34 484.34 0 01-5.752-1.785 632.164 632.164 0 01-76.229-30.8c4.861 1.354 9.693 2.66 14.482 3.846 68.875 27.537 136.4 36.334 194.564 36.334 93.412 0 162.725-22.676 174.768-26.883 2.439-14.166 14.553-106.639-63.223-210.375a239.277 239.277 0 00-28.041-31.162c115.314 104.389 94.428 243.666 94.354 244.174l-20.234 9.16c-2.3.969-4.592 1.91-6.889 2.8a597.717 597.717 0 01-150.734 19.318m37.787-310c-74.074-45.428-173.051-64.6-268.35-64.6a692.947 692.947 0 00-120.248 10.369 420.87 420.87 0 00-59.135 14.846c41.826-16.561 70.3-21.711 71.055-21.857a3.529 3.529 0 002.828-2.609 709.761 709.761 0 01105.162-7.785 687.418 687.418 0 0182.729 4.91 683.124 683.124 0 0172.188 16.92c45.477 13.227 82.945 30.316 113.771 49.8" fill="#8866ac"/><path d="M2508.931 135.208a343.146 343.146 0 0175.934-39.768h.023l.1-.047a399.582 399.582 0 0161.521-17.676 3.536 3.536 0 01.434 2.584c0 .072-.025.123-.025.168a3.518 3.518 0 01-2.848 2.609c-.748.145-29.191 5.287-71.033 21.85a550.645 550.645 0 00-64.1 30.279" fill="#8866ac"/><path d="M2850.149 437.899a605.108 605.108 0 01-69.691-27.187c-4.117-2.17-6.35-3.52-6.525-3.607a630.394 630.394 0 0076.217 30.795m310.682-14.846" fill="#fbe0c9"/><path d="M2965.71 461.394c-1.158-.07-2.3-.135-3.463-.2-37.447-3.092-73.514-11.051-107.014-21.66.217.041.457.109.678.15 36.375 11.162 75.9 19.141 117.385 21.16-2.521.2-5.043.395-7.584.549" fill="#d997bb"/><path d="M2855.905 439.693c-.221-.064-.461-.109-.68-.152l-5.068-1.646c1.885.613 3.84 1.227 5.748 1.8" fill="#8866ac"/><path d="M2962.233 461.19c-90.863-5.926-160.771-39.365-181.768-50.482a600.151 600.151 0 0069.686 27.186c1.705.553 3.359 1.105 5.064 1.656 33.506 10.609 69.574 18.568 107.018 21.641" fill="#d9bbc1"/><path d="M2993.905 461.361q-10.4 0-20.633-.5c74.527-5.68 132.084-17.738 149.166-21.6a381.359 381.359 0 01-57.427 15.764 396.392 396.392 0 01-71.105 6.338" fill="#d997bb"/><path d="M2349.551 104.214c0-.686.707-1.588 2.051-2.687a174.853 174.853 0 00-2.051 2.688m2.051-2.687a205.781 205.781 0 0118.021-19.605c46.736-32.551 89.32-48.738 132.781-48.738 39.949 0 80.605 13.7 125.854 41.021l-25.957 12.7a525.247 525.247 0 00-19.924 6.885c-27.764-17.555-61.8-23.732-95.207-23.732-63.021 0-123.748 22.047-135.568 31.473" fill="#c29086"/><path d="M2584.872 95.437c-.832-.562-1.684-1.1-2.516-1.639a554.433 554.433 0 0119.928-6.9l-17.289 8.486c-.049.025-.1.025-.123.051m-215.252-13.5c23.719-22.791 67.4-54.854 125.381-54.854 89.971 0 137 45.291 137 45.291l-3.766 1.834c-45.242-27.316-85.887-41.008-125.846-41.008-43.432 0-86.033 16.186-132.766 48.736" fill="#8866ac"/><path d="M2584.89 95.432h-.023c.049-.021.1-.021.121-.045l-.1.045" fill="#b8a3cd"/><path d="M2985.419 1006.151c-.219-.373-.439-.746-.639-1.119a284.054 284.054 0 0035.1-11.816 141.939 141.939 0 01-19.055 8.6c-3.324 1.078-6.6 2.021-9.836 2.9-1.873.486-3.721.967-5.568 1.428m191.66-288.963c9.111-129.848-11.816-266.979-15.646-290.566.047-.047.111-.047.152-.068 4.734 22.8 29.971 153.635 15.494 290.635m-49.4-279.1v-.043l7.7-3.479c.859-.221 1.7-.461 2.531-.682q-5.118 2.18-10.23 4.2" fill="#fbacc1"/><path d="M2971.996 1009.017c-.064-.27-.148-.557-.187-.8q6.5-1.453 12.949-3.178c.229.373.453.744.658 1.115a262.103 262.103 0 01-13.42 2.865" fill="#d4ade2"/><path d="M3135.38 434.54l5.221-2.336q10.107-4.225 20.24-9.162a365.557 365.557 0 01-22.906 10.838c-.836.221-1.676.439-2.555.66m26.055-7.949c-.375-2.336-.594-3.549-.594-3.549s.266 1.213.748 3.5c-.043.021-.107.021-.154.045" fill="#8866ac"/><path d="M2953.206 1011.749a319.29 319.29 0 0018.605-3.553c.063.248.125.535.186.824-6.7 1.23-13 2.113-18.791 2.729" fill="#fbe0c9"/><path d="M2928.993 1013.055c-8.3 0-13.146-.5-13.146-.5 128.146-32.336 194.225-118.459 224.377-248.393 27.072-116.625-11.984-323.145-12.553-326.072 3.412-1.367 6.848-2.754 10.266-4.207a362.357 362.357 0 0022.9-10.838s.219 1.213.594 3.549c3.834 23.611 24.779 160.744 15.662 290.59-4.715 44.666-13.656 90.02-28.92 132.463-48.041 88.807-97.951 127.266-128.3 143.566a285.37 285.37 0 01-35.088 11.826 329.903 329.903 0 01-12.973 3.152 317.566 317.566 0 01-18.611 3.566 233.508 233.508 0 01-24.209 1.3m200.108-119.89c3.633-7.291 7.07-14.361 10.287-21.035q-4.131 9.715-8.7 18.545c-.525.838-1.059 1.652-1.586 2.49" fill="#fbe0c9"/><path d="M3126.082 899.209c1.012-2.041 2.023-4.041 3.012-6.041.539-.842 1.076-1.658 1.594-2.5-1.506 2.928-3.055 5.744-4.605 8.539" fill="#fbe0c9"/><path d="M3000.837 1001.818a144.5 144.5 0 0019.047-8.6 255.64 255.64 0 0031.111-15.389c-4.162 2.9-8.41 5.7-12.783 8.369a224.914 224.914 0 01-37.375 15.619" fill="#d997bb"/><path d="M3019.874 993.222c30.328-16.3 80.244-54.758 128.3-143.566q-4.052 11.32-8.732 22.354l-.064.131c-3.2 6.68-6.658 13.748-10.291 21.035-19.2 30.111-44.879 61.285-78.1 84.654a250.658 250.658 0 01-31.109 15.393" fill="#d9bbc1"/><path d="M3038.208 986.179q6.577-4 12.791-8.344c33.219-23.393 58.912-54.568 78.092-84.67-.988 2-2 4.021-3.01 6.063-24.424 43.24-56.332 70.2-87.873 86.951" fill="#d9bbc1"/><path d="M3140.6 432.204l20.242-9.162q-10.107 4.922-20.242 9.162" fill="#b8a3cd"/><path d="M3159.161 966.792c15.389-22.127 28.9-48.865 28.9-74.727 0 31.088-13.166 56.01-28.9 74.727m28.9-74.727c0-60.187-12.072-99.389-12.072-99.389s12.072 22.232 12.072 99.389m-35.373-41.148c2.557-7.365 4.879-15 7-22.779.281-.633.543-1.244.807-1.814l15.5-33.646s-7.1 24.988-23.3 58.24" fill="#fbacc1"/><path d="M3140.352 874.443a22.51 22.51 0 00-.936-2.43c9.025-18.8 16.16-34.615 20.258-43.855-2.125 7.787-4.445 15.422-7 22.773a448.422 448.422 0 01-12.318 23.512" fill="#fbe0c9"/><path d="M3106.865 1008.503c46-80.891 36.859-123.852 33.492-134.082 4.59-8.133 8.7-16.027 12.33-23.5 16.2-33.252 23.307-58.24 23.307-58.24s12.07 39.2 12.07 99.389c0 25.861-13.512 52.6-28.9 74.723a178.434 178.434 0 01-52.3 41.715" fill="#fbe0c9"/><path d="M3159.68 828.146a.813.813 0 00.045-.193l.76-1.607c-.262.564-.521 1.15-.8 1.8" fill="#d997bb"/><path d="M3139.42 872.014l20.3-44.049c-.021.064-.021.105-.043.172a1612.986 1612.986 0 01-20.258 43.877" fill="#d9bbc1"/><path d="M3373.92 1426.579c-10.062-3.98-28.756-2.9-58.936-9.508l13.008-6.422c24.473 5.088 41.645 8.449 48.967 14.3l-3.039 1.633" fill="#c9efe8"/><path d="M3374.063 1426.593c-.047 0-.092-.023-.137-.023l3.063-1.637a.375.375 0 01.092.072l-3.018 1.588m-59.051-9.533a.331.331 0 01-.162-.045l13.078-6.4a.183.183 0 00.094.021l-13.01 6.424" fill="#949494"/><path d="M3380.912 1432.177a12.625 12.625 0 00-1.566-2.1l1.105-.578a7.883 7.883 0 01.461 2.674" fill="#c9efe8"/><path d="M3379.341 1430.074a14.437 14.437 0 00-5.3-3.455l3.02-1.592a10.273 10.273 0 013.387 4.469l-1.109.578" fill="#949494"/><path d="M3316.604 1409.968q.2-.542.406-1.086l1.883-.047-2.289 1.133" fill="#c9efe8"/><path d="M3314.835 1417.033c-.09-.021-.182-.045-.293-.068a63.876 63.876 0 012.066-7l2.295-1.137-1.887.045c.066-.158.113-.34.182-.5 3.705.8 7.293 1.545 10.725 2.252l-13.088 6.4" fill="#949494"/><path d="M3254.463 1397.159a407.591 407.591 0 01-17.936-8.232l3.1-1.406q10.875 3.715 21.148 6.738l-6.312 2.9" fill="#b5c6d6"/><path d="M3254.56 1397.214c-.043-.021-.066-.021-.113-.045l6.338-2.9a.364.364 0 01.133.043l-6.357 2.9" fill="#91869b"/><path d="M3271.793 1404.187c-3.312-1.264-6.758-2.594-10.273-4.055l7.57-3.471c9.506 2.68 18.559 4.979 27.1 7.008l-24.395.518" fill="#b5c6d6"/><path d="M3261.533 1400.14a748.392 748.392 0 01-6.975-2.928l6.373-2.93c2.771.826 5.477 1.607 8.16 2.369l-7.559 3.488" fill="#91869b"/><path d="M3306.352 1415.026c-6-1.494-12.391-3.309-19.232-5.506l29.9-.656c-.133.385-.271.727-.406 1.088l-10.264 5.074" fill="#b5c6d6"/><path d="M3314.536 1416.978a333.39 333.39 0 01-8.2-1.947l10.285-5.074a59.637 59.637 0 00-2.082 7.021m-27.436-7.453a367.06 367.06 0 01-15.293-5.346l24.375-.521a900.161 900.161 0 0021.025 4.711c-.068.184-.137.34-.2.521l-29.9.635" fill="#91869b"/><path d="M3236.538 1388.92a375.823 375.823 0 01-9.094-4.547q-5.291-2.7-10.469-5.1 11.61 4.523 22.668 8.25l-3.105 1.4" fill="#8866ac"/><path d="M2730.409 1414.461l-.59-6.023c.127.023.252.023.377.043l.213 5.98m238.424-19.35c27.754-13.791 56.83-24.865 87.59-31.121-.062.275-.127.508-.189.76-35.141 8.949-64.385 23.012-87.4 30.361" fill="#d4ade2"/><path d="M3269.397 1466.285c-.162-.162-66.439-71.627-121.934-80.451a125.048 125.048 0 00-20.027-1.568c-67.432 0-131.521 50.4-220.432 50.4-17.215 0-33.23.07-48.141.07-69.623 0-115.277-1.566-148.992-19.43-1.359-.711-2.627-1.4-3.758-2.025l20.744-5.186c.9.09 1.887.23 2.971.344l.576 6.016h81.535c9.105.3 18.486.484 28 .484 47.383 0 97.875-4.381 128.895-19.82 23.021-7.35 52.266-21.432 87.389-30.375a69.241 69.241 0 01-2.465 7.859s35.006-12.467 76.395-13.482c27.516 1.984 56.35 8.273 86.7 20.119.023 0 .072.021.115.021a332.757 332.757 0 0110.486 5.119 515.242 515.242 0 009.078 4.539q9.34 4.526 17.934 8.227a.354.354 0 00.092.068c2.373 1.014 4.7 1.984 6.959 2.93 3.551 1.43 6.959 2.787 10.3 4.033 5.322 2 10.416 3.756 15.3 5.346a304.613 304.613 0 0019.221 5.508c2.834.715 5.555 1.359 8.2 1.938.115.02.211.043.3.066.045 0 .115.025.16.025 30.191 6.613 48.857 5.531 58.93 9.494a.425.425 0 00.113.045 14.106 14.106 0 015.3 3.479 13.031 13.031 0 011.566 2.1v.094c0 20.486-5.969 33-111.52 34.016" fill="#fbe0c9"/><path d="M3053.737 1372.604a69.513 69.513 0 002.473-7.85c.064-.258.15-.494.191-.754.539-.107 1.057-.217 1.594-.3v.082l51.918-5.354h1.074c6.326 0 12.691.238 19.145.709-41.381 1.012-76.393 13.465-76.393 13.465" fill="#fbe0c9"/><path d="M2730.393 1414.476l-.2-5.992c10.779 1.244 30.2 3.219 53.869 4.656-31.365 1.063-53.674 1.336-53.674 1.336" fill="#be97d1"/><path d="M2811.947 1414.461h-81.545s22.311-.275 53.678-1.33c8.779.527 18.145 1 27.867 1.33M3057.98 1363.791v-.086a272.637 272.637 0 0151.938-5.258l-51.937 5.344" fill="#d9bbc1"/><path d="M2729.715 1407.379l-21.926-228.551a109.28 109.28 0 00-1.621-11.184c15.033 70.316 23.527 239.027 23.547 239.734m-25.146-246.746a115.773 115.773 0 00-7.3-20.076c2.572 3.752 5.012 10.723 7.3 20.076" fill="#d4ade2"/><path d="M2683.269 1418.962c25.643-51.969-21.621-312.658-21.621-312.658s15.012 4.4 35.586 34.2a.085.085 0 01.037.059 115.773 115.773 0 017.3 20.076c.553 2.213 1.064 4.553 1.6 7.012a109.16 109.16 0 011.619 11.182l21.928 228.553-2.877.723c-3.754-.437-5.811-.723-5.811-.723s-16.289-4.289-23.49-4.289c-5.256 0-5.693 2.289 8.555 10.2l-22.822 5.674" fill="#fbe0c9"/><path d="M2706.105 1413.266c-14.236-7.895-13.8-10.182-8.564-10.182 7.213 0 23.506 4.281 23.506 4.281s2.057.287 5.8.725l-20.746 5.176" fill="#fdecdf"/><path d="M1997.563 1216.865c-.084-.018-.6-.053-1.418-.105 36.754-27.4 102.307-58.949 163.744-58.949a161.2 161.2 0 0124.928 1.875 200.189 200.189 0 00-24.051-1.437c-64.836 0-122.316 30.744-163.2 58.617m272.762-1.77c5.012-12.562 8.215-19.727 8.215-19.727q-8.774-5.8-17.484-10.6l29.033 10.6-19.764 19.727" fill="#fbacc1"/><path d="M1868.544 1316.27l.365-1.574c.332-.58.646-1.143.943-1.674.166-.1.348-.232.58-.381-.645 1.209-1.258 2.418-1.889 3.629" fill="#8866ac"/><path d="M1862.822 1341.009l5.73-24.75c.627-1.209 1.26-2.418 1.889-3.625 9.76-6.656 75.338-51.619 112.607-85.215l14.555-10.561h-.033c40.883-27.867 98.369-58.609 163.2-58.609a200.677 200.677 0 0124.064 1.438 133.488 133.488 0 0125.328 6.463c22.908 8.391 39.252 14.348 50.9 18.619a248.02 248.02 0 0117.482 10.613s-3.207 7.148-8.2 19.725l-1.77 1.752s-42.547-25.1-102.572-25.1a209.985 209.985 0 00-83.32 17.15c-64.4 27.535-159.531 132.1-219.857 132.1" fill="#98918d"/><path d="M1868.932 1314.68l.283-1.223.645-.447c-.3.531-.613 1.092-.928 1.67M1983.044 1227.413c3.807-3.412 8.2-7 13.09-10.654.842.051 1.336.086 1.439.105h.018l-14.529 10.549" fill="#fbe0c9"/><path d="M1706.782 842.324c-5.465-2.82-11.809-6.3-18.857-10.32a275.475 275.475 0 01-6.854-10.279c6.639 3.918 12.494 7.637 17.289 11.1.158.1.295.217.451.313.314.258.646.512.961.766a37.939 37.939 0 017.01 8.42" fill="#fbacc1"/><path d="M1848.837 1352.134s-129.119-8.2-131.86-56.434c-18.867-331.1-40.535-415.746-40.535-415.746-153.646-16.025-222.786-176.887-222.786-176.887 17.233 17.242 89.674 49.693 153.686 80.545.226 4.547.409 7.168.409 7.168 41.578 12.631 77.382 39.639 110.2 93.213 24.432 39.9 18.2 207.832 22.582 309.68-.487 43.844-1.421 73.676-1.421 73.676l11.759 3.475c7.493 40.494 95.773 42.666 114.762 42.666 2.294 0 3.572-.02 3.572-.02l-20.368 38.664m-130.643-483.026a317.49 317.49 0 01-30.279-37.1c7.067 4.021 13.4 7.492 18.867 10.314 4.224 6.66 8.021 15.76 11.412 26.789" fill="#fbe0c9"/><path d="M1750.861 1270.808l-11.744-3.473s.914-29.812 1.422-73.652c1.484 34.924 4.234 62.084 9.912 73.652a28.144 28.144 0 00.41 3.473m-51.1-436.912l-.936-.76c.313.234.625.486.936.76" fill="#fbe0c9"/><path d="M1687.904 832.018c-21.53-12.221-49.578-29.295-78.656-47.459 27.235 13.152 52.828 25.967 71.824 37.18a270.549 270.549 0 006.832 10.279" fill="#d997bb"/><path d="M1740.543 1193.682c-4.378-101.863 1.843-269.785-22.587-309.691-32.832-53.578-68.616-80.584-110.205-93.227 0 0-.178-2.615-.417-7.152.654.316 1.288.617 1.922.934 29.087 18.168 57.125 35.25 78.663 47.455a317.417 317.417 0 0030.3 37.111c8.2 26.668 14.126 64.592 18.466 106.656 4.379 71.986 4.517 158.018 3.862 217.914" fill="#d9bbc1"/><path d="M1750.433 1267.339c-5.662-11.553-8.4-38.723-9.893-73.664.67-59.875.521-145.914-3.857-217.9 11.852 115.109 11.7 261.135 13.75 291.564" fill="#d9bbc1"/><path d="M2574.028 638.48c-17.865 0-36.467-4.645-54.172-13.2 28.6-.711 80.291-7.98 112.137-48.029 63.713-80.064 9.68-235.383-66.748-311.811 0 0 40.605 17.5 74.844 59.484a3.577 3.577 0 00.363 2.852c.186.3 3.545 5.861 8.533 15.289 8.346 25.98 24.74 76.291 38.3 114.115 2.162 46.881-4.576 105.855-31.2 144.9-22.533 22.164-47.687 34.3-75 36.145-2.344.162-4.687.254-7.057.254" fill="#c29086"/><path d="M2577.042 643.589c-23.6 0-45.775-8.486-63.469-18.236h1.219c1.586 0 3.283-.023 5.07-.07 17.7 8.553 36.3 13.191 54.172 13.191q3.565 0 7.061-.271c27.311-1.832 52.453-13.982 75.012-36.139a106.452 106.452 0 01-16.564 19.1q-8.282 5.672-17.717 10.887a91.225 91.225 0 01-44.783 11.539m71.936-300.523c-4.979-9.436-8.326-15.025-8.508-15.318a3.5 3.5 0 01-.385-2.828 213.006 213.006 0 015.205 6.652c.928 2.9 2.174 6.789 3.688 11.494" fill="#8866ac"/><path d="M2576.739 644.131c-21.73.021-47.367-5.9-77.564-19.494a142.781 142.781 0 0014.387.725c17.686 9.734 39.869 18.248 63.473 18.248a91.3 91.3 0 0044.766-11.539q9.451-5.218 17.732-10.889c-15.857 14.23-36.436 22.949-62.793 22.949m110.564-186.932c-13.576-37.834-29.975-88.158-38.332-114.133-1.514-4.676-2.756-8.584-3.682-11.473a197.586 197.586 0 015.783 8.086 475.314 475.314 0 0129.229 65.457q1.69 6.876 2.957 14.119a303.266 303.266 0 014.045 37.943" fill="#fbe0c9"/><path d="M2680.308 405.13a473.268 473.268 0 00-29.232-65.451 202.28 202.28 0 0129.232 65.451" fill="#d9bbc1"/><path d="M2499.942 849.856c-17.01 0-35.158-4.512-52.611-13.406a134.206 134.206 0 01-71.859-102.781c-13-102.234 87.057-150.271 91.314-152.273a16.956 16.956 0 0122.555 8.178 16.954 16.954 0 01-8.156 22.553c-3.627 1.709-81.871 39.9-72.049 117.262a100.239 100.239 0 0053.646 76.834c21.711 11.109 44.813 12.773 60.242 4.344a16.983 16.983 0 0123.02 6.766 16.986 16.986 0 01-6.766 23.037c-11.637 6.324-25.086 9.488-39.334 9.488" fill="#232323"/><path d="M2601.293 927.49a15.134 15.134 0 01-2.061-.121c-9.08-1.105-223.23-29.184-294.285-218.666-78.443-209.189-45.727-393.664 92.115-519.455 150.012-136.934 407.313-176.67 585.773-90.469 226.934 109.588 195.1 324.816 194.732 326.98a16.944 16.944 0 01-11.02 13.277c-180.424 64.379-320.105 48.031-480.186-60.7 29.527 70.418 56.82 181.209-24.125 245.959-40.105 32.1-79.7 45.111-117.666 38.682-54.291-9.205-83.719-55.25-84.971-57.215a16.983 16.983 0 015.375-23.391 16.977 16.977 0 0123.34 5.3c.393.594 23.17 35.443 62.244 41.9 27.908 4.641 58.367-6.086 90.471-31.785 99.16-79.3-15.119-264.391-16.3-266.254a16.912 16.912 0 013.045-21.623 17 17 0 0121.844-.713c171.639 135.459 311.467 164.3 495.525 101.367 3.191-40.6 2.453-194.537-177.062-281.227-166.854-80.605-407.654-43.273-548.148 84.973-126.916 115.822-156.443 287.166-83.229 482.465 63.914 170.436 264.586 196.672 266.625 196.916a16.975 16.975 0 0114.8 18.877 16.978 16.978 0 01-16.838 14.922" fill="#232323"/><path d="M2890.462 1030.764c-82.271 0-164.834-21.818-221.5-52.646-111.605-60.723-151.471-141.9-153.1-145.338a16.947 16.947 0 017.963-22.619 16.942 16.942 0 0122.6 7.92c.377.758 37.367 75.088 138.754 130.211 100.9 54.9 301.246 79.906 399.623-18.449 138.8-138.822 60.279-499.475 59.477-503.109a16.962 16.962 0 0112.869-20.258 16.977 16.977 0 0120.236 12.873c3.479 15.549 83.275 382.627-68.6 534.5-55.459 55.434-136.77 76.916-218.328 76.916" fill="#232323"/><path d="M2887.695 760.272s94.723 13.244 157.223-17.988c0 0 16.682 82.957-59.674 97.549-94.512 18.027-97.549-79.561-97.549-79.561" fill="#f2f2f2"/><path d="M2900.761 773.006c2.617 13.17 9.074 33.262 24.8 45.8 14.035 11.186 33.43 14.541 57.574 9.9 18.273-3.484 31.908-11.713 40.52-24.459 9.984-14.752 11.715-32.967 11.479-45.375-48.457 18.355-107.402 16.369-134.373 14.134zm62.32 80.346c-20.3 0-37.672-5.68-51.77-16.969-33.008-26.465-34.863-73.783-34.908-75.766a11.286 11.286 0 013.76-8.779 11.328 11.328 0 019.092-2.785c.932.125 92.061 12.367 150.627-16.9a11.308 11.308 0 0110-.062 11.343 11.343 0 016.143 7.932c.359 1.795 8.506 43.984-13.506 76.74-12.115 18-30.668 29.482-55.125 34.166a129.984 129.984 0 01-24.314 2.428M2066.657 1625.393c-209.616 0-415.16-38.275-473.884-124.623-52.362-77-73.86-483.174-77.517-560.674-69.917-53.432-96.037-157.553-91.444-213.24 2.012-24.393 9.765-39.937 23.027-46.121 5.825-2.746 17.771-5.756 32.466 4.588l11.169 7.863c55.62 39.264 131.789 93.043 211.3 125.914 13.395 5.527 38.317 15.832 55.215 237.779 6.738 88.656 9.5 176.621 10.219 202.488 21.832 15.914 72.85 26.768 104.409 30.453 19.909-6.8 30.764-16.875 48.15-33.076 22.282-20.744 52.819-49.15 119.564-84.91 115.777-62.014 231.143-6.432 255.084 6.533 76.7-1.924 123.067-54.928 176.6-116.1 7.679-8.746 15.421-17.613 23.368-26.439 66.479-73.832 131.832-82.762 170.889-88.086 3.256-.453 6.349-.881 9.3-1.311a16.992 16.992 0 0119.293 14.273 16.953 16.953 0 01-14.275 19.271 510.66 510.66 0 01-9.729 1.373c-36.68 5.016-92.1 12.574-150.244 77.17-7.844 8.725-15.5 17.451-23.062 26.092-57.488 65.7-111.782 127.738-206.482 127.738a17.057 17.057 0 01-8.685-2.4c-1.126-.676-115.939-67.176-226.022-8.215-62.895 33.691-90.379 59.293-112.5 79.854-19.58 18.229-35.043 32.627-64.514 41.7a17.072 17.072 0 01-6.739.656c-10.117-1.045-99.819-11.246-133.184-44.605a16.882 16.882 0 01-4.956-11.613c-4.136-184.242-22.693-395.437-45.569-417.641-82.669-34.342-160.283-89.127-217.01-129.166l-10.2-7.211c-2.51 6.369-5.018 21.545-2.3 46.348 5.938 53.863 33.913 123.375 83.042 157.127a16.98 16.98 0 017.326 13.229c5.925 132.549 30.383 489.994 72.06 551.271 58.133 85.486 326.815 130.115 611.7 101.625a18.886 18.886 0 012.663-.061c2.254.143 226.228 12.49 306.471-8.09a16.973 16.973 0 0120.644 12.227 16.953 16.953 0 01-12.206 20.643c-82.884 21.26-294.754 10.324-315.5 9.176-54.376 5.406-111.312 8.193-167.94 8.193" fill="#232323"/><path d="M2523.544 1163.347c-20.268 156.064-22.123 409.582 58.84 432.607 186.824 53.164 433.881-79.2 436.334-80.545a16.971 16.971 0 0122.238 5.514c1.3 1.9 34.771 48.969 114.551 37.828 76-10.609 75.658-91.154 75.588-94.584a16.987 16.987 0 015.768-12.994 16.854 16.854 0 0113.6-4.1c52.422 7.461 106.881 5.84 115.963-3.311-.021-.764-.068-1.391-.094-1.854-3.242-.836-9.729-1.551-15.125-2.131-25.088-2.711-67.064-7.25-131.508-40.283-92.105-47.234-164.264-19.229-216.963 1.248-10.2 3.939-19.83 7.691-28.727 10.541-55.479 17.768-235.773 20.063-243.416 20.154h-.186a16.978 16.978 0 01-16.889-15.359l-22.609-235.609c-3.635-37.9-28.215-69.656-62.66-80.893-63.889-20.852-98.931 50.754-104.705 63.771zm157.012 479.238c-36.346 0-72.67-4.1-107.461-13.99-135.979-38.687-88.746-427.744-82.908-471.963a18.627 18.627 0 011.111-4.193c16.584-40.68 68.732-110.822 147.492-85.109 47.258 15.406 80.984 58.537 85.895 109.9l21.1 220c59.439-1.205 179.576-6 217.867-18.256 7.945-2.549 17.1-6.092 26.8-9.867 55.363-21.5 139.061-53.977 244.74.184 58.838 30.186 96.9 34.309 119.646 36.738 21.334 2.316 45.518 4.938 45.518 38.5 0 9.57-4.008 18.115-11.559 24.672-24.324 21.08-88.721 17.652-124.93 13.734-5.443 41.279-31.225 99.334-103.687 109.432-75.656 10.59-119.346-22.168-137.5-40.793-43.5 21.846-192.943 91.018-342.125 91.018M2697.246 1073.157a16.726 16.726 0 01-7.01-1.541 16.94 16.94 0 01-8.418-22.457c7.617-16.8 12.648-56.758 10.723-67.994a16.967 16.967 0 0113.885-19.564 16.96 16.96 0 0119.582 13.867c3.084 18.211-2.916 64.893-13.314 87.73a16.949 16.949 0 01-15.447 9.959" fill="#232323"/><path d="M2940.644 1233.816c-149.447 0-287.354-207.17-293.148-216a16.968 16.968 0 014.855-23.484 16.978 16.978 0 0123.508 4.854c1.313 2 133.633 200.711 264.785 200.711 8.627 0 14.547-2.707 19.234-8.75 17.775-23.07 15.086-92-6.875-175.645a16.973 16.973 0 0112.1-20.713 16.975 16.975 0 0120.715 12.107c15.066 57.449 35.236 160.473.9 204.98-11.086 14.361-27.006 21.943-46.074 21.943" fill="#232323"/><path d="M3057.993 1380.752a16.108 16.108 0 01-4.078-.508 16.968 16.968 0 01-12.4-20.533c6.645-26.879 9.871-50.383 9.854-71.891-.045-59.6-50.492-221.77-75.271-276.17a16.978 16.978 0 018.43-22.482 16.979 16.979 0 0122.465 8.428c26.094 57.326 78.264 223.045 78.3 290.2.023 24.289-3.523 50.49-10.828 80.045a17 17 0 01-16.477 12.906M3205.388 1389.57a16.94 16.94 0 01-15.926-11.1c-39.5-107.32-89.111-351.953-91.2-362.295a16.976 16.976 0 017.445-17.633c92.322-59.342 64.811-168.477 54.156-200.486a16.99 16.99 0 0110.764-21.461 16.983 16.983 0 0121.465 10.764c12.184 36.771 42.928 159.551-58.3 233.092 10.256 49.613 53.539 254.043 87.5 346.279a16.955 16.955 0 01-10.057 21.8 17.02 17.02 0 01-5.848 1.041M2234.246 1617.148a16.981 16.981 0 01-15.629-10.338c-93-219.186 51.764-413.557 57.979-421.719a16.966 16.966 0 0123.775-3.221 16.961 16.961 0 013.236 23.742c-1.391 1.861-138.928 187.18-53.746 387.953a16.969 16.969 0 01-9 22.242 16.792 16.792 0 01-6.617 1.34M1850.1 1603.665a16.933 16.933 0 01-14.814-8.678c-81.262-144.969 19.863-291.508 24.213-297.664a16.921 16.921 0 0123.625-4.1 16.948 16.948 0 014.113 23.627c-1.469 2.105-92.834 135.822-22.338 261.545a16.986 16.986 0 01-6.5 23.092 16.959 16.959 0 01-8.295 2.174M1938.217 1236.381c-46.569 0-105.341-5.162-129.2-29.02-20.006-20.029-19.86-80.336-17.841-185.2 1.416-74.572 3.56-187.279-15.718-206.578-17.445-17.424-34.516-44.467-52.564-73.092-23.61-37.389-55.949-88.625-77.22-88.625-.752 0-2.013 0-4.18 2.334-16.579 17.738-19.826 88.705-16.821 133.422a16.967 16.967 0 01-15.786 18.07 17.032 17.032 0 01-18.067-15.779c-1.375-20.445-6.619-124.117 25.876-158.885 8.007-8.557 18.023-13.094 28.979-13.094 39.978 0 71.994 50.734 105.906 104.445 16.28 25.793 33.1 52.461 47.861 67.219 27.5 27.5 28.042 105.7 25.647 231.209-1.123 58.727-2.811 147.475 8.036 160.672 19.61 19.611 106.547 21.465 162.006 16.469a16.917 16.917 0 0118.4 15.385 16.967 16.967 0 01-15.363 18.426c-9.243.83-32.5 2.621-59.956 2.621M2311.678 354.726a16.921 16.921 0 01-15.852-10.982c-39.4-104.494-24.957-194.941 41.723-261.619 100.266-100.268 240.131-86.367 317.447-15.014a16.964 16.964 0 01.963 23.965 16.946 16.946 0 01-23.988.967c-65.543-60.5-184.605-71.775-270.43 14.072-57.354 57.355-68.807 133.283-33.982 225.66a16.966 16.966 0 01-9.893 21.865 16.43 16.43 0 01-5.988 1.086M2577.902 764.149c3.08-11.342 2.932-23.1.936-34.092a93.206 93.206 0 00-11.8-30.658c-5.619-9.324-12.859-17.441-20.645-24.809-3.914-3.684-8.369-6.932-12.428-10.344l-13.465-9.074-.977-.646a17.147 17.147 0 01-4.621-23.811 17.128 17.128 0 0123.787-4.641 17.32 17.32 0 013.145 2.727l12.779 14.111c3.85 5.182 7.846 10.051 11.344 15.4 6.889 10.736 12.842 22.1 16.607 34.26a105.749 105.749 0 014.748 37c-.75 12.238-3.684 24.248-9.408 34.572M3181.334 1432.271c12.434-2.055 25.66-.449 38.453 3.17a115.948 115.948 0 0118.783 7.416 140.271 140.271 0 0117.73 10.518l.021.045a14.37 14.37 0 013.8 19.988 14.369 14.369 0 01-19.986 3.818 14.605 14.605 0 01-3.842-3.842 117.388 117.388 0 00-10.25-13.42 100.762 100.762 0 00-12.551-11.859c-9.223-7.078-19.943-13.154-32.156-15.834M3166.465 1476.825c12.9.023 25.977 3.07 38.629 7.563a149.188 149.188 0 0118.617 8.342 171.037 171.037 0 0117.705 10.854 14.378 14.378 0 013.736 19.992 14.346 14.346 0 01-19.971 3.738 13.928 13.928 0 01-3.762-3.738 142.727 142.727 0 00-10.7-14.078 130.3 130.3 0 00-12.7-12.854c-9.205-7.963-19.617-15.148-31.559-19.818M2636.143 1432.289a264.419 264.419 0 0144.727-21.492 259.019 259.019 0 0149.6-13.3l.229-.037a17.254 17.254 0 0119.822 14.2 17.254 17.254 0 01-14.2 19.84 17.916 17.916 0 01-6-.057 231.661 231.661 0 00-46.242-3.973 254.739 254.739 0 00-47.934 4.818M3127.669 1519.819c12.893.045 25.963 3.078 38.635 7.592a150.345 150.345 0 0118.594 8.314 170.8 170.8 0 0117.711 10.869 14.39 14.39 0 013.742 20 14.407 14.407 0 01-20 3.721 14.2 14.2 0 01-3.738-3.721 141.607 141.607 0 00-10.7-14.1 129.82 129.82 0 00-12.719-12.85c-9.219-7.941-19.6-15.158-31.527-19.824M2947.167 1019.315a160.2 160.2 0 00-5.486 17.191 159.288 159.288 0 00-3.893 18.047 109.4 109.4 0 00-1.551 18.434 56.646 56.646 0 002.977 18.535c-4.262-4.873-7.381-10.891-9.889-17.107a118.634 118.634 0 01-5.67-19.373 184.06 184.06 0 01-3.139-20 192.012 192.012 0 01-1.205-20.656v-.449a14.446 14.446 0 0114.48-14.375 14.444 14.444 0 0114.393 14.477 15.032 15.032 0 01-1.018 5.281" fill="#232323"/><path d="M2534.9 728.451a35.715 35.715 0 01-35.711 35.713 35.721 35.721 0 01-35.732-35.713 35.725 35.725 0 0135.732-35.732 35.719 35.719 0 0135.711 35.732" fill="#e53ee9"/><path d="M3374.929 1556.601a21.21 21.21 0 01-21.189 21.189 21.215 21.215 0 01-21.215-21.189 21.218 21.218 0 0121.215-21.215 21.213 21.213 0 0121.189 21.215" fill="#390075"/><path d="M3005.153 1372.261a8.353 8.353 0 01-1.746-.191c-129.566-26.932-209.949-93.668-307.109-255.012-31.324-52.014-60.48-64.387-88.662-76.324-55.236-23.418-102.924-43.654-137.883-315.684a8.476 8.476 0 017.342-9.482 8.471 8.471 0 019.48 7.322c33.736 262.375 77.262 280.842 127.674 302.2 29.24 12.418 62.412 26.477 96.584 83.213 94.355 156.664 171.8 221.32 296.047 247.174a8.495 8.495 0 016.572 10.043 8.489 8.489 0 01-8.3 6.74" fill="#e53ee9"/><path d="M2950.873 2317.673c-26.836 0-54.4-16.959-71.34-44.254-15.926-25.666-21.656-56.672-26.264-81.566-4.535-24.562-9.3-48.211-13.932-71.084-26.469-131.182-49.34-244.463 6.623-381.285 9.646-23.586 14.92-56.906 20.488-92.176 10.77-68.105 22.986-145.27 71.111-190.141 103.469-96.385 75.51-263.793 55.139-386.031-3.9-23.377-7.611-45.467-10.107-65.359a8.461 8.461 0 017.332-9.49 8.517 8.517 0 019.49 7.336c2.475 19.568 6.139 41.5 10.014 64.717 21.037 126.02 49.82 298.652-60.295 401.25-43.863 40.885-55.572 114.975-65.932 180.355-5.729 36.279-11.137 70.539-21.543 95.957-54.016 132.074-32.68 237.734-5.682 371.508 4.629 22.943 9.42 46.664 14 71.352 5.523 29.9 10.793 54.461 23.992 75.717 14.574 23.537 38.273 37.664 60.227 36.107 35.2-2.551 57.867-41.689 64.053-76.994 9.008-51.352-2.451-104.791-13.52-156.475l-1.469-6.859c-12.42-58.256-22.344-115.123-7.332-170.518 14.344-53.027 62.4-108.492 123.707-108.492.891 0 1.807.01 2.678.029 15.078.408 30.3 3.951 45.01 7.379 26.1 6.082 50.762 11.818 70.309-.832 23.443-15.236 24.867-48.951 24.385-62.721-.344-10.211-1.7-20.752-3-30.951-2.018-15.834-4.1-32.221-2.82-48.789 3.668-47.117 37.24-82.455 92.148-96.984a8.478 8.478 0 0110.383 6.027 8.5 8.5 0 01-6.027 10.381c-47.529 12.559-76.543 42.395-79.57 81.881-1.168 14.852.736 29.654 2.73 45.332 1.352 10.586 2.752 21.518 3.139 32.5 1.215 35.23-10.52 63.5-32.129 77.545-25.6 16.609-54.979 9.764-83.393 3.133-13.889-3.246-28.26-6.578-41.6-6.93-54.178-1.629-96.686 48.35-109.588 95.924-13.98 51.736-4.4 106.408 7.563 162.541l1.465 6.844c11.414 53.27 23.215 108.352 13.637 162.967-7.539 42.967-35.041 87.762-79.52 90.979a61.173 61.173 0 01-4.564.168" fill="#e53ee9"/><path d="M2943.331 1027.074a16.956 16.956 0 01-16.811-14.861 16.956 16.956 0 0114.713-18.932c60.826-7.67 109.139-29 143.582-63.439a16.931 16.931 0 0123.984 0 16.975 16.975 0 010 23.988c-39.9 39.9-94.855 64.508-163.324 73.117a18.241 18.241 0 01-2.145.127M2885.759 674.482c-10.27-6.381-20.951-12.2-31.492-16.191a85.3 85.3 0 00-31.348-6.029c-10.166.291-20.373 1.953-29.975 7.131l-3.744 1.537-3.514 2.2-7.129 4.408c-4.615 3.3-9.125 7-13.8 10.518l-2.184 1.664a9.325 9.325 0 01-9.977.77 57.874 57.874 0 01-11.082-7.922 53.009 53.009 0 01-8.854-9.979 39.981 39.981 0 01-5.693-12.594 31.155 31.155 0 01-.189-13.639 4.568 4.568 0 015.342-3.574 4.545 4.545 0 013.516 3.283l.186.686a27.631 27.631 0 003.557 8.42 35.934 35.934 0 005.963 6.59 64.365 64.365 0 007.693 5.174 47.885 47.885 0 008.209 3.6l-12.158 2.455c4.717-4.887 9.164-10.145 14.322-14.824l8.418-6.379 4.262-3.2 4.76-2.6c12.324-7.5 27.771-11.039 42.635-10.621a79.969 79.969 0 0141.033 13.449c11.684 7.918 21.414 17.564 28.146 29.789a4.6 4.6 0 01-1.787 6.277 4.6 4.6 0 01-4.656-.125l-.457-.271" fill="#232323"/><path d="M2783.964 658.61c-6.018-1.211-9.969-3.676-14.129-6.937a43.84 43.84 0 01-10.156-12.059 44.3 44.3 0 01-5.641-15.34 27.956 27.956 0 012.152-15.8 2.214 2.214 0 012.945-1.025 2.44 2.44 0 01.795.648l.146.209a44.182 44.182 0 008.547 8.945 67.665 67.665 0 009.008 5.662c3.072 1.65 6.373 2.926 9.279 4.7 2.82 1.691 6.227 3.7 7.982 6.1l2.674 3.658a13.517 13.517 0 01-2.9 18.891 13.513 13.513 0 01-10.7 2.34M3009.47 664c1.576-12.725 6.7-24.26 14.494-34.846a65.021 65.021 0 0132.965-23.264c13.521-3.953 27.93-3.262 40.523.281 6.4 1.684 12.031 4.688 18.018 7 5.422 3.088 10.648 6.5 15.9 9.742l-12.186 1.25a38.967 38.967 0 005.727-5.484 43.136 43.136 0 004.688-6.891 27.869 27.869 0 002.721-7.713 28 28 0 00.219-8.75l-.066-.689a4.258 4.258 0 013.846-4.623 4.233 4.233 0 014.084 2.117c1.984 3.457 3.928 7.32 4.447 11.6a34.658 34.658 0 01-.279 12.832 43.681 43.681 0 01-4.215 11.926 48.076 48.076 0 01-7.3 10.758 9.015 9.015 0 01-10 2.182l-2.182-.932c-4.988-2.07-9.937-4.061-14.754-6.2-4.943-1.293-9.783-3.391-14.645-4.1a59.879 59.879 0 00-27.674-.043c-8.727 1.988-17.021 6.5-24.734 13.023-7.709 6.418-14.926 14.8-21.559 23.568l-.3.412a4.288 4.288 0 01-6.045.844 4.3 4.3 0 01-1.687-4" fill="#232323"/><path d="M3081.394 607.709c.58-2.441 2.848-5.225 4.648-7.473 1.883-2.377 4.154-4.5 6.188-6.893a48.169 48.169 0 005.631-7.9c1.863-3 3.018-6.424 4.389-10.771l.064-.215a2.074 2.074 0 012.592-1.369 2.1 2.1 0 01.791.494 26.6 26.6 0 017.346 12.633 38.307 38.307 0 01.727 15.2 40.251 40.251 0 01-4.689 14.133c-2.59 4.3-5.246 7.752-10.34 10.834a12.406 12.406 0 01-17.086-4.131 12.428 12.428 0 01-1.5-9.316l1.24-5.225" fill="#232323"/></svg>
